<?xml version="1.0" encoding="UTF-8"?>
<svg id="Warstwa_1" xmlns="http://www.w3.org/2000/svg" version="1.1" viewBox="0 0 1080 1080">
  
  <path d="M533.5,125.3c11.8-1.9,18.2-5.5,30.4-1.9,57.4,16.9,120.7,126.7,147,178,45.4,88.6,98.2,226.6,95.5,326.6-1.2,46.2-33.7,143.7-65,178-11.4,12.5-26.7,19.1-38.5,30.5-21.2,20.3-33.8,47.4-59.2,64.8-28.6,19.6-85.2,25.4-120,30-34.2,4.5-99.5,14.6-131.1,6.4-68.6-17.8-110.7-129.6-123.9-192.1s-2.5-59.2-7.6-90.4-12.3-53-13.7-80.3,2.8-52.5,0-78.5l-4,6c.9-21.7,14.9-40.2,28.5-56,19.3-22.5,33.5-31.9,44.5-61.5,21.1-56.9,18.6-133.6,59.5-180.5,7.5-8.7,24.7-25.6,34.8-30.2,15.3-7,20.7.8,32.9-16.1,16.3-22.4,26.1-52.9,59.4-56.6,19.1-2.2,22,10.3,30.6,23.7ZM465.9,871.5c8.1-.8,17.3.6,25.5,0l-21,12h38l-6-18c98.6-16.5,111-132.4,132.3-211.2,2-7.4,15-54.2,18.7-56.3l2.9.5c18.7-61.3,18-129.9,11-193.3-8.2-74.2-33.8-181.2-83.4-238.6-27.5-31.8-36.8-12.2-64.5,2.5-45.7,24.4-97,.9-127,49-13.7,21.9-8.2,46.1-19.1,68.9s-16.9,17.1-23.3,31.7c-9.4,21.2-12.3,45.8-20.5,67.5l.4,2.4c13.6-5,26.6-11.8,39.5-18.5,19.9-10.3,60-36.9,80.4-38.6,21.1-1.7,48.4,21.8,63.6,35.5,72.9,66,104.6,162.3,76.3,258.3-22.5,76.3-73.1,173.5-168.5,153.9-27.5-5.6-75.4-19-97.3-35.7s-18.6-19.5-29.5-27c13.5,42.7,11.8,95.3,38.6,132.9,13,18.3,40.5,31.4,37.4,57.1,30.6-9.3,63.4-31.9,95.5-35ZM550.4,881.5c10.2-4.2,18.5-3.5,28.4,1.1,8.8,4.1,14,12,24.9,10.6,16.9-2.1,55.1-24.3,67.8-36.2,90.5-85.5,115.5-196.7,106-318s-8.6-97.8-26-120c-6.4-8.1-17.5-13.8-25-22-4.1-4.5-7.4-10-11.5-14.5-12.2-13.5-24.9-26.5-37-40l1.6,20.9,9.9,1.1-.4,12.1c-.9,1.2-6.2,1.3-8.1,1.9s-1.9-.6-1.5,1.5,3.6,6.7,4.5,9.5c5.3,16.2,1.4,46.7,9.1,57.9s34.2,14.9,31.4,34.1c-8.9-3-12.8-11.5-19.5-17-10-8.2-16-2-15.6,9.6,2.4,56.7-11.3,112.2-26.5,166.5-23.8,85.3-51.3,174.7-112.5,241ZM438.1,353.7c-9.4,1.8-27.7,10.6-37.1,14.9-55.5,25.3-123.4,65.5-135.3,130.7-7.5,40.9-7.7,114.6,8.5,152.9,13.3,31.4,46.5,75.5,77.8,90.2,33.7,15.8,109.2,25.1,140.3,1.6,26.7-20.3,69.1-105.6,79.4-138.6,14.8-47.3,1.1-143.5-25.9-185.7-16.8-26.3-75-72-107.7-65.9Z"></path>
</svg>