<?xml version="1.0" encoding="UTF-8"?>
<svg id="Warstwa_1" xmlns="http://www.w3.org/2000/svg" version="1.1" viewBox="0 0 1080 1080">
  
  <path d="M298.9,603.1c13.4-9.3,16-19.9,24.7-32.4,6.8-9.7,16.2-12.7,13.7-27.1s-2-3.3-2.4-6,.7-7.5-.5-11.6-7.8-4.1-4.9-8.4,2.7-.7,3.1-2c2.4-9.3-12.5-22.4-16.7-30-2.7-5-2.9-10-4.8-14.5-7.4-17.7-17.2-18.3-32.7-26.2s-10.4-7-12.9-7.6-5.1,1.2-8,1-8.5-5-12.2-4.8-3.2,2.8-5,3.4c-5.1,1.6-15.7-8.3-21.4-9.4s1.1,5.6,1.5,6.9c.6,2.1.3,4.2.3,6.3-8,1.1-10.8-7.4-18.1-10.1-7.7-2.9-15.9-.5-23.2-4.1l-7.4,5.8c-2.3,3.5,5.4,7.8,5.4,12.6s-5.7,7.4-5.7,8.4,4.9,6.3,5.9,8.4c7,14.9,5.4,31.4,7.3,46.8.8,6.3,5.5,14.8,5.9,20.7s-3.7,7.4,2.5,13c8,7.3,22.8,12.6,31.8,18.7,3.8,2.6,7.5,10.8,12.6,9-7.9-13.9-12.1-29.5-18.4-44.1-10.1-23.5-24.1-51-31.7-75.3s-1.3-2.9,1.3-2.5c1.7.7,4.9,6.6,5.9,8.6,7.2,14.3,9.9,27,15.5,41.1s12.1,21.8,16.8,32.5c8.2,18.8,12,35.9,25.2,52.9s13,7.7,8.2,12.3-14.1,7.3-15.3,7.5c-9.4,1.7-21.6-1.1-30.9.4s-12.2,6.7-16.9,7.2c-2.4.3-3.6.5-3-2.4,9.8-4.5,17.2-8.7,28.3-9.6,5.7-.5,27.3,1.8,29.3-4.4s-3.8-6.6-5.9-9.4-2.9-6.2-5.4-7.9-4.4-.1-6.9-1.3-4-4-6.5-5.6c-9.9-6.3-18.3-3.2-28.8-.4s-13.4,5.5-18,6.1-15.4-1.4-22.8-1.1c-12.4.4-24.1,5.2-36.6,3.7-.3-3.1-.2-2,1.8-2.4,8.9-1.6,18.8-4.2,27.7-4.8,16-1.2,23.5.5,40-3.3,5.6-1.3,15.1-2.5,19.8-4.2s-2.6-7.5-5.8-8.2c-5.6,1.1.5,2.8.6,3,2.3,6.1-5.6.1-7.9-.5-4.8-1.4-16.3-3-21.7-3.5-12.9-1.4-26-1.3-38.9-1.3,1.1-2,6.9-2.3,9-2.4,18.5-1.2,33.6,3.1,50.5,3.7,1.8,0,4.8,1,4.2-1.8-4.9-4.5-11.5-6.7-16.3-11.4s-5.9-10.2-9.5-14.5c-16.9-20.6-51-25.7-62.6-50.5-.7-1.6-1.1-3.3,1.2-2.4s3.7,5.8,5.4,7.8c2.8,3.2,7.6,8.2,10.8,10.8s8.1,7.6,10.3,4.2-6.8-24.5-5.7-29.2c-2.9-6.1-5-1.9-7.9-1.1s-12.2-4.2-14.7-7l14.5,1.8c3.8-9.9,1.6-19.3,15.6-12.7.6-3.1-1.6-11.9,2-13,8.1-1.8,14.6,3.2,22.1,4.6-2.9-3.3-6.8-4.1-4.3-9.7,2.3-1.8,5.3-1.6,7.8-3s5.8-6.9,8.2-7.6,5.4,1.8,8.2,2.2c6.3.8,12.2-.7,18.6,2.5-.4-16.4,19.2,0,23.4,0s3.3-2.5,6-2.5,6.7,4.4,9.9,4.8,3.7-1.9,5.8-2.2c7.7-1.4,24.9,10.9,32.2,14.6,16.9,8.7,27.2,8.6,35.9,27.8,4.8,10.6,4.5,21.6,16.6,28.5-.2-13.6,6.1-27,11-39.6,8.8,2.4,6.9-2.9,10.7-7.9,8.2-10.9,9.8-1.1,12.6-1.8,4.2-8.6,11-13.6,16.9-20.4,1.9-2.2,2.6-6.7,5.4-7.9s4,.4,5.4.1,7.2-3.4,7.7-3.8c3.5-2.2,10.4-19.2,13.3-2.9,6.1.4,7.9-7,12-10.3l7.2,1.4,5.6-7.8,8,2.2c3.6-2.6,8.5-16.6,14.1-12.6s.7,6.6,5.1,5.3,8.7-14.2,15-10.4,1.1,3.2,2.6,4,6.3-1.7,8.3-.4l1.4,7.1c4.6,1.5,7.7-5.1,12-3.1,4.6,2.2,2.4,11.7,7.8,15.2,2.7,1.8,8-1.8,10.3,1.9s2.2,17.8,1.2,22.5c.9,2.5,5.3,1.1,7.7,4.4,3.5,4.8-.1,6.7-.6,10.3s4,11,5.3,12.6c1.9,2.3,5.8,2.8,6.8,4.3,2.1,3.1-.4,5.8,0,8s2.3,2.2,2.8,3.3c1,2.4-2.7,29-3.8,33.4-4.6,17.7-18.3,36.8-32.9,47.6-3.3,4,2.1,6.2,4.2,9.2,29.3,42.1,37.8,90,54.3,136.9,10.9,31.1,33.7,67.9,23.1,102.5-4.4,14.4-22.8,32-37.9,34.3-13.5,2-27.5,3-40.7,7.3-1.7.5-1.6,2.3-2.5,2.6-3.6.9-28.9-7.4-35.2-9-25.5-6.4-46.5-2.7-71.6-3-7.2,0-16.6-2.3-23.9-2.5-24.1-.7-64.9,2.1-84.7-13.8-5.8-4.7-10-14.3-15.2-19.6-11.2-11.4-21.5-14.5-30.7-30.6-15.1-26.3-13.4-72.6-3.4-100.6-1.4-1.3-11.7,4-14.1,4.5-9.8,2.3-22.7,5.6-32.3,7.4-25.8,4.7-30.1-5.4-48.2-17.7-7.7-5.3-24.7-10.1-24.5-21.3s3.1-5.2,1.7-8.7-15.6-12.3-19-17.2c-5-7.2-2.7-11.8-4.9-16.7s-3.5-3.1-4.7-4.9c-7.2-10.8,1.4-15.5,0-25.2-1.2-8.6-14.4-22.1-9-30.5s4.3-2,4.8-4.9-1.4-5-1.3-7.2c0-3.3,1.7-6.3,1.3-9.5-.8-5-9.3-9.9,2.4-13.3-1-7-8.6-16.1-8.6-22.8,0-4.3,6-17.3,12.2-15,1.2,1.1-3.2,11.7-3.6,13.9-1.2,8.8,10.9,23.3,9.7,32.4s-2.6,1.8-3.5,3.8-2.7,8.8-2.8,9.4c-.4,5.5,5.1,7.9,3.5,13s-8.4,3.3-8,7.2,9.6,16.4,10.6,21.9c1.4,7.6-3.6,13.6-2.3,20.3s6.1,5.7,7,8.7,0,6.4.8,10c1.6,6.4,18.1,20.3,24.1,25.2,2.1,1.8,8.1,1.9,4.9,7.2s-6.3,1.7-7.8,4.2c5,6.8,13.2,8.4,19.8,12.7,10.3,6.8,15,16.2,29,17.9,15.5,1.8,26-4.1,40.1-7.8,8.9-2.4,20.6-1.3,28.2-9.1,9.4-15.2,25.4-26.3,37.9-39.1l-6.4-5.2c-2.4,3.3-14.8,10.9-18.4,11.7s-8-.3-11.7.3c-17.1,2.9-31.5,14.6-49.4,13.2-2.1-.2-3.9.3-5.3-1.9,0-1.8,17-2.9,20.2-3.8,6.5-1.8,13.8-6.2,20.6-8.2s18.2-2.5,25.6-4.5c4.8-1.3,10.7-7.9,16.5-6.9,2.2-2-9.3-10.8-10.9-12.6-16.3-18.6-16.2-39.6-25.2-61.4l-22.9-48.7c2.6-.5,4.6,3.8,5.8,5.6,10.5,15.8,23.2,42.2,28.8,60.2,3.9,12.5,4.7,23.9,12.5,35.6,2.2,3.2,19.8,19.7,22.7,20.7s3.3-2.1,4.7-3c-3.2,3.1-8.7-13-9.4-14.1-13.7-23.9-20.3-40.1-31.1-65.1-3-7-15.1-27.2-16-32.1s0-2,0-2.9c16.4,19.6,22.5,44.6,33.2,67.2,1.3,2.7,3.6,4.5,5,7.1,3.7,7,5,15.5,11.8,20.7,2.6.5,1.8-1.2,1.8-3,0-7.7-1.8-22.7-2.6-31.1-3.5-36.7-37.6-58.1-56.8-85s-7-8.8-6.7-14.3c3.3-.7,2,1,3,2.4,16.2,24.8,43.5,42.7,56.8,69.5,9.9,19.9,9.3,44.3,9.9,65.7.1,5,3.8,9.5,1.3,15.1ZM489.8,391.8c-1.8-1.1-7.5-1.2-9.9-3.6-4.2,3.1-11,12.4-16.7,10.4l-2-3.4h-1.7c-4.2,3.1-8.5,10-12.7,12.5s-13.5,7.7-14.7,8.2c-3.7,1.6-5.5-.4-8.1.2s-5.9,5.1-9.1,5.5-6.2-1.9-7.5-1.1-1.3,3.9-3.9,5.2c-4.6,2.3-8.6.6-14.4,4.8-8.9,6.5-17.2,25-22.5,28.4s-6.7-1.2-8.8.4c-1.4,4.7-1.9,8.7-6.5,11.6s-5.6.7-7.7,4.3-5.8,18.1-6.1,21.7c-.5,6.5,3.8,13.3,3.6,17.9s-2.4,4.2-2.5,6,2.1,4.3,2.4,7.2c.7,7.5-.6,15.9,0,23.5,9.6-.5,7-8.8,8.5-14.9,1.7-6.6,6.9-14,8-20.9,2.2-14-.6-31.8-.9-46,1.6.3,2.6,2.2,3,3.6,2.5,7.6,2.8,32,1.8,40.4-.7,6.5-5.5,13.2-4.3,19.8,7.7-8.6,10.2-19.8,12.5-30.8s-.2-6.1.4-9.2c1.4-6.8,4.6-13.1,5.1-20.1l3-1.2c-1.5,14.4-3.4,29.1-8.4,42.8l2.4,4.1c17.5-23,18.7-54.8,33.9-78.5s3.2-6.1,5.8-5.6c-2.2,10.2-8.9,19.1-12.6,28.9-6.7,17.6-10.1,34.6-19.4,51.6-2.5,4.6-9.8,12.6-11.3,17.6s7.1-.2,8.3-1.3c1.8-1.6,7.3-9,9-11.4,8.4-11.7,14.2-25.2,19.9-38.4l2.4.6c-2.7,9.6-6.3,18.7-11.1,27.4s-8.3,11-9.4,13.5.4,2.4,1.8,1.8c3.8-1.6,16-18.1,18.4-22.4,15.1-26.9,13.7-58.2,26.7-85.7l2.4.6c-9,23-9.4,48.2-17.5,71.5-3,8.5-8.7,19.6-14,26.9s-13.3,12.7-11.8,14c12.3-.7,26.7-2.5,39-1.1s18,4.4,25.6,5.7c11.1,1.8,21.1,1.4,32.2,5s12.2,6.2,14.4,6.2,11.8-8,13.9-10.3c7.6-8.1,18.5-26.6,20.3-37.4s2.3-19.8,2.1-21.4c-.4-3.7-5.1-7.1-2.2-13.2l-11-6.6c-7.2,6.5-16.4,8.7-24.8,12.6-5,2.4-13.3,8.1-18.1,9.5-5.9,1.8-12.7-1.4-18,1.2s-7.7,8.2-10.9,10.7-4.8,1.7-7.2,3.6c-4.1,3.2-8.1,11.2-13.1,14.5-1.2,2.8,5.3,2,6.5,1.7,15.4-2.9,48-8.3,61.2-14.6,3.6-1.7,12.3-9,14.6-9.4s1.8,2.8.7,4.3-6.5,4.5-8.7,5.8c-19.1,11.4-54.5,14.7-77,17.9-5.7.8-8.8,4.6-14.2,4.5-2-1.9,10.1-13.7,11.8-16.4,12.6-20,19.2-49.8,21.8-73.2.2-2.1-.3-4,1.9-5.4,2.9-.7,1.9,3.9,1.8,5.4-.8,13.7-5,32.8-9.3,46s-4.7,10.4-6.3,15.9c.9,1.2,5.4-3.9,6-4.5,7.8-9.2,9.6-19.8,15.3-30.1l8.8-29.1c2.2,0,2.5-.6,2.4,1.8-.3,4.7-3,12.3-4.4,17.2s-5.8,7.9-1,12.2l17.4-36.7h2.4c-2.8,9.7-7.2,19-11.8,27.9s-4.9,4.2-3.8,8.1l2.9,1.9,18.7-25.2c-2.3,12.7-11.8,22.5-19.2,32.5,4.8-.5,12-3.5,16-6.2,6-4,10.1-12.3,17.6-14.2,2.1,2.3-10,13.3-12.1,14.9-4.5,3.4-20.7,9.3-22.2,11.5-4.1,6.2,10.6,1.5,12.7.6,11.9-4.9,25.8-13.5,37.4-19.2,1.5-.7,3.1-.8,4.7-.7-2.4-7.4-3.3-11.1,0-18.5-.7-2.4-8.2-1-9.4-7.6-.7-3.9,2-6.2,2.1-9.4.6-10.4-4.5-7.3-9.6-10.7s-7.8-8.6-7.1-12.7c-.9-1-6.2,5.5-12.1.7-1.2-1-1.8-3.5-2.6-4ZM184.7,529.8c.2-8.3-4-14.9-4.8-23.5-1.6-18.7-.4-25.5-7.9-43.8-1.1-2.7-5.6-13.8-6.7-15-2.4-2.7-12.3-6-16.1-6.7-3.6.9,4.2,19-5.8,16.6s-8.4-11.5-10.4-1.6,1.8,3.4,3.5,4.7,4.3,24.2,6,28.9c3.7,10.2,20.5,20.2,28.3,27s7,7.4,10.4,11.2,1.1,2.6,3.4,2ZM499.3,551.9c-10.4-7.2-29.6-8.9-42.5-11-39.7-6.4-81.3-9.5-112.8,20.1-3.7,3.5-5,7.1-7.3,9.6s-5,2-7.7,5.5c-6.6,8.5-11.5,19.3-19.3,28.5-16.3,19.1-40.1,33.3-51.9,56.6-12.4,24.7-12.4,79.8,2.9,103.4,8,12.4,19.3,16.5,28.7,26.6s13.6,22,28.3,24.6c18.8,3.3,35,4.3,54,4.9,31.9,1.1,69.1-1.8,99.7,2.5,14.6,2,25.6,15.1,41.7,11.4s5.3-3,8.3-3.7c13.8-3.4,37-4.9,48-12.1,23.3-15.2,20.9-37.6,16.8-62.3-3.8-22.9-17-43.7-24.5-65.7-3.1-9-4.7-22.3-8.1-30.4-1-2.4-6.1-4.2-7.4-9.5s1.7-5.9,1.1-9.4c-.9-5.6-9.8-27.9-12.5-34.4-6.8-16.2-21.5-45.5-35.5-55.2Z"></path>
  <path d="M877.9,393.9c10.9-1.8,32.8-15.8,37.7-26s1.2-15.9,10.8-13.5c4.8,6.1.2,10.4.2,16s1.2,4.1,1.2,6c-.2,17.7,1.5,39-13.2,51.7,1.4,1.9,1.8,1.8,3.9,1.6,7.9-.9,30-15,35.7-20.9s4.2-11.1,11-8.4c5.3,10.5-6.4,27.1-2.7,36.3s10.1,9.2,12.3,11.8c5.2,6.1,13.8,22.8,15.3,30.4,2.7,13.9-14.8,10.8-16.5,12.4s-.2,4.4-1.9,7.1c-10.8,17.4-30.7,12.4-47.4,8.5-1.1,6.2.6,11.5-.5,18.1-6,35-25.6,56.2-42,85.4-11.9,21.2-17.8,29.9-32.5,49.3-14.4,19-40.8,59.1-65.3,63.3-7.7,1.3-29.6-1.8-37.9-3.6-19.6-4.2-35-38.6-49.5-51.5-29.9-39.4-55.5-82.5-74.9-128.3-8.8-20.6-4.1-48.8,10-66.3,3.5-4.3,7.8-6.4,11.3-10.4,6.7-7.6,12.1-19.1,19.3-27.6,5.1-6,9.9-11.6,16.8-15.7-1.1-1.8-2.3-1.7-4.1-1.9-12.7-1.4-37.6,5.1-49.2,11s-15.5,13.4-21.2,7.7c-9-9.1,21.3-19.4,25.7-22.5,13.1-9.3-1.8-17.8-7.6-26.9-8.2-12.9-7.4-21.3.6-34.2,7.1-11.3,8-5.2,14.6-.3,10.8,8.1,22.8,9.7,34.7,14.6,3.4,1.4,6.3,4.6,10.2,4.9,1.5-1.5-8.8-10.3-10.1-12.1-3.7-5.1-12-26.8-2.4-27.6s6.3,6.1,9.1,8.9c11.5,11.7,24.4,9,38.8,6.6s4-1.9,6.2-2.2c9.1-1.4,19-2,28.3-3l.8-1.2c-1.3-14.8-4.8-29.4-3.2-44.4s2.6-12.1,3.2-13.6c.9-2.2,4.3-5.1,6.7-4.9,7.5,4.7,15.4,8.9,23.4,12.6,9.5,4.5,23.2,6.8,29.1,15.7,8.3,12.6,4.1,24.9,2.5,38.8l25.8-36.1c9.9-8.1,8.2,4.4,12.2,10.8s6.4,6,8.9,9.2c17.1,22,15.3,43-5.4,61.9l1.2,2.4c6.3-.7,14.5,1,20.4,0ZM799.1,375.9c3.3-7,2.6-14.9,3.9-22,2.3-11.8,6.2-22.1,4.4-35-1.8-13.5-13.1-12.4-22.7-16.9s-19-11.5-23.3-10.1-1.7,1.5-2,2.9c-1,5.2-.5,24.2.1,29.9,1.6,13.6,9,29.5,19.7,38l19.8,13.3ZM813.5,391.5c27.5,7.7,57.5-13.6,49-43.6-2.8-9.7-11.7-15.7-17.2-23.7-2.7-2.7-5.6-.2-7.6,2-5.2,5.6-24.2,39.9-24.2,46.7v18.6ZM755.8,390.3c0,2,0,4,0,6-11.5-1.4-23.3-1-34.2,3.7s-9.3,7.6-13.5,10.5c-21.4,14.7-36.4,22.1-50.9,45.3-2.2,3.6-5.5,7.5.3,8.8,12.3-11.2,20.7,3.6,32.4,1.1s12.4-9.5,17.7-16c7.5-9,18.6-2.7,29.2-4.5s16.1-6.7,18.9-8.8c11.3-8.7,6.2-33.1,21.7-38.4l-21.7-7.8c0-2,0-4,0-6,6.3-1.7,12.3,2.8,17.5,3.5,7.3,1.1,16.9-.1,24.6,1.3,1.4-1.2-6.5-8.5-7.8-9.6-4.6-4.1-10.5-7.3-15.1-11.4-5.5-4.9-10.3-14.2-17.4-15.1-23-2.7-46,9.9-64.6,5.7s-10-3.6-14.1-5.7c-.5,2.3,1.3,2.9,2.4,4.2,21.3,25.4,43,29.4,74.5,33.1ZM710.1,395.1l-78.9-36c-2.1-.2-5.6,7.3-6.1,9.2-3.3,13,24.5,28.7,19,42.8l1.8,1.9c9-3.1,31.6-8.8,34.3,3.5h3.9c4.1-5.3,23.2-13.6,25.5-17.9s.8-2.3.6-3.6ZM919.3,398.1c.7-6-.5-13.1,0-19.2l-2.4-1.2c-12.2,14.2-33.3,24.6-52.3,23.5s-17.4-3.6-17.4-1.8l12.1,22.8c17.7,6.1,48.7,12,56.5-10.7s3.3-11.1,3.5-13.3ZM784.5,398.9l-4.6-.2c3.7,6.1-1.5,10.6-2.3,16.3-2.4,17,2.8,19.4,17.9,22.8,7.8,1.7,17.3,2.1,25.3,4.7,9.8,3.2,19,11.4,28.8,15,1.3-3.8,1.4-7.5,1.3-11.5-.2-6.6-1.4-21.2-2.5-27.6-.9-5.2-7-13-12.7-13.8-10.6-1.4-21.9-1.3-32.4-1.3-3.6,0-16.4,1-18-1.2s-.3-3-.8-3.4ZM921.1,436c-5.7.9-15.3,0-21.6,0s-3.5,1.2-3,2.4c19.7,6.2,59.5,9,58.3-20.4-10.7,4.6-21.8,16.2-33.7,18ZM859.2,434.8v24.6c0,.6-5.5,8.4-6.5,9.1-5.7,3.8-10-3.5-14.2-6.4-8.3-5.6-16.1-9.9-25.9-12.6-15.2-4.2-32.6-1.8-43-15.9-6.9,10.1-26.3,21.4-38.5,21.7-6.4.2-12-5.3-17.1.3s-1.3,3.5-2.8,5.1c-8,8.5-14.3,14.7-27,13.8-12.6-.8-12-10.2-24.7.6-7.3,6.2-13,21.4-23.4,9.1-10.4,13-13,33-7.9,48.7,26.8,59.2,60.6,117.8,104,166.5,11.4,12.8,25.4,14.2,42,14.5,15.5.3,24.3-6.5,34.8-17,14.9-15,38.9-46.6,51-64.4,7-10.3,9.3-18.3,14.8-28.4,11.7-21.2,25.9-36.1,34-59.7,4.8-14,9.2-25.2,3.4-39.4s-12.1-19.3-22.6-31.5-16.7-25.2-25.9-35.5c-1.3-1.5-2.5-3.4-4.8-3ZM880.7,436.2l-7-1.4c.1,4.2,4,6.9,6.6,9.6l.4-8.2ZM903.7,458.8l3-3.6c16.3,20.3,48.5,37.2,73.9,24.5.6-1.8-7.1-18.5-8.8-21.1s-11.5-13.4-13.7-14.1c-5.1-1.5-10.3,5.6-16.2,7.4-16.4,5-29.2,1.3-45.5-1.6-1.5,1.3,6.7,8.7,7.2,8.4ZM955.4,499.7c-8,.4-18-4-24.5-8.6-5-3.6-8.8-9.5-13.4-13-6.8-5.1-16.3-7.5-22.2-14.4,1.2,7.1,9.3,10.8,13.2,15.4s6.7,15.1,12.8,18.1,17,4.6,20.3,4.9,9,.4,12,0,2,.4,1.8-2.4Z"></path>
  <path d="M234,585.1c-6.9-1.5-16.2-4.4-23.3-3.5-4.4.5-6.5,3.3-10,4.4-13.7,4.1-27.9,7.6-41.5,11.4s-17.4,9.3-26.1,3.9l.7-3c8.6,1.9,14.6-2.6,21.9-4.5,19-5,38.2-10.5,56.3-18.4,4.9,2.2,18.2,1.8,21,5.3s1.3,2.5,1.1,4.3Z"></path>
  <path d="M332.9,677.4c1.7,1.7,5.8,1.5,8.1,1.5.3,2.9-.2,6.1-3.3,7-12.4,3.7-18.6-22.1-13-23.8,6.3-1.9,5.2,12.5,8.1,15.3Z"></path>
  <path d="M358.8,638.3c2.7,4.6,7.1,8.8,11,12.4s8.7,3,6.1,8.4c-7,4.2-21.9-13.4-24.1-19.2l7-1.6Z"></path>
  <path d="M404.7,664.4c1.7-.1,3.2-.1,4.8.6s10.1,16.2,10.6,18.3,0,2.7-1.6,4c-5.4,1.4-16.5-20.2-13.8-22.8Z"></path>
  <path d="M447.6,709.3c1.9,2,12.5,18.9,7,20.1s-13.9-15.6-14.5-18c-1.5-6.2,4-5.8,7.5-2.1Z"></path>
  <path d="M387.3,621.2c3.6-1,10.1,9.4,11.6,12.4s3.8,5.7.3,8.1c-5.2,1.5-17.9-18.8-12-20.4Z"></path>
  <path d="M385.3,721.1c.6,12.7-21-5.4-20.3-9.1,1.4-7.8,17.5,8.9,20.3,9.1Z"></path>
  <path d="M308.3,694.8c.7.7,8.8,17.9,4.4,18.9-9.7.5-13.5-28.5-4.4-18.9Z"></path>
  <path d="M407.8,597.1c4.5-.9,15.4,16,9.5,17.9-4.3,1.4-8.6-6.8-10-10.2s-2.7-5.4.5-7.7Z"></path>
  <path d="M332.6,748.6c-5.2,1.2-6.8-3.3-8.9-7.4s-5.3-10.7-1.3-11.9,11.2,14.8,10.2,19.2Z"></path>
  <path d="M439.3,564.9c.9.8,2,5,1.5,5.7-1.9,2.6-19.8-2.9-18-8.9,1.6-4.6,15.2,1.9,16.5,3.2Z"></path>
  <path d="M279.7,713.7c6.7-4,17.1,15.2,11.4,16.8-4.5,1.3-13.6-14.6-11.4-16.8Z"></path>
  <path d="M364.7,593.7c2.9-.9,18.1,3.7,17.2,7.6-4,7.1-26.8-4.6-17.2-7.6Z"></path>
  <path d="M452.2,639.2c5.2-1.6,11.1,15.8,6,19.2-3.1.7-11.1-17.7-6-19.2Z"></path>
  <path d="M509.2,659.8c.6,2.9,6.7,15.3,1.9,16.7-6.7,2-12.9-19.8-1.9-16.7Z"></path>
  <path d="M523.9,654.9c5.6-3.9,8.9,9.4,9.3,12.8,1.5,12.7-15.8-8.2-9.3-12.8Z"></path>
  <path d="M470.4,613.2c16.2,14.9-3.7,14.1-9,0,.9-5.2,6.5-2.4,9,0Z"></path>
  <path d="M349.4,734.2c-2.9,3-11-12.6-11.5-14.3-1.2-4.2,3.8-5.3,6.6-1.7s5.6,10.8,5,16.1Z"></path>
  <path d="M481.8,774l3.9-1.1c2.8.5,10,13.9,5,16.6-6.3-2.7-9.3-8.9-8.9-15.5Z"></path>
  <path d="M381.5,783.6c3.3-1,15.7,3.6,14.8,7.7-4.4,7.3-23.5-5.1-14.8-7.7Z"></path>
  <path d="M488.7,716.3c11.3,21.6-7.3,18.8-5.8-.2l5.8.2Z"></path>
  <path d="M500.8,700.4c-7,4.7-10.2-14.4-4-15.4s6.6,13.6,4,15.4Z"></path>
  <path d="M446.8,604.3c-2.4,2.4-17.8-8.7-12.1-12.7s14.1,7.8,12.1,12.7Z"></path>
  <path d="M468,576.8c5.2-3.6,14.4,11.8,9.4,13.1s-10-7.4-11.3-10.4l1.8-2.7Z"></path>
  <path d="M548.4,734.2c3.6-1.1,5.8,5.1,6.8,7.6s3.7,7.4.4,8c-5,1-12.4-14-7.2-15.6Z"></path>
  <path d="M522.6,734.2c6-2.9,15.1,9.9,9.6,12.7-4.6,2.5-11.2-11.1-9.6-12.7Z"></path>
  <path d="M415.6,731.8c-2.6,2.5-17.1-8.8-9.6-12.7,3.2-1.7,11.3,8.7,9.6,12.7Z"></path>
  <path d="M346.7,624.5c-2.5,2.4-12.4,2.3-12.7-1.5-.5-6.4,18.5-7.9,12.7,1.5Z"></path>
  <path d="M397.1,575.6c3,.3,13.9,2,12.4,6.5s-20.1,0-12.4-6.5Z"></path>
  <path d="M520.2,772.7c5.1-2.2,14.9,4.7,11.5,9.7s-14.4-6.6-11.5-9.7Z"></path>
  <path d="M332.6,787.1c-6.3.8-11.4-6.1-10.8-12,6.3-.8,11.4,6.1,10.8,12Z"></path>
  <path d="M438.4,658.4c-2.5,2.5-14.1-11.4-7.8-13.2s9.8,8.9,7.8,13.2Z"></path>
  <path d="M315.8,653.6c-6.4,1.3-12.1-4.4-10.8-10.8,5.8-.9,10.9,5.5,10.8,10.8Z"></path>
  <path d="M328.4,754.6c3.3-.8,8.7,6.4,9,9.1,1.1,11.4-15.5-7.4-9-9.1Z"></path>
  <path d="M462.9,753c-1.3-1.2-2.3-3.9-4-5,8-11.6,16.3,15.9,4,5Z"></path>
  <path d="M499.1,749.8c4.3-1.3,9.3,9.5,4.8,10.8s-9.4-9.4-4.8-10.8Z"></path>
  <path d="M433.6,753.4c2,6.5-11.1,9.8-12,5.4s8.8-6.7,12-5.4Z"></path>
  <path d="M252,699.3c4-1,9.1,5.4,8.2,8.8l-2.8,3.2c-4.3-3.5-6.4-6.2-5.4-12Z"></path>
  <path d="M516,708.9c4.5-1.4,8.8,10,4.8,10.8s-9.4-9.4-4.8-10.8Z"></path>
  <path d="M278.5,681.3c6.4-1.5,9.7,6.5,5.4,10.8-4.8-1.2-5.8-6.7-5.4-10.8Z"></path>
  <path d="M356.8,749.7c-2.3-3.4.8-6.5,5.6-5,13.2,4.3-2.7,9.2-5.6,5Z"></path>
  <path d="M427.6,706.5c-5.4.8-10.4-4.3-9.6-9.6,3.7-1.8,11,8.3,9.6,9.6Z"></path>
  <path d="M531,708.9c-5.4,2.5-9.8-7.2-5.4-8.4s6.3,5.1,5.4,8.4Z"></path>
  <path d="M431.8,668.1c5.5-1.4,6.9,9.6,3.6,9.6s-8.3-8.4-3.6-9.6Z"></path>
  <path d="M361.1,779c5.8,5.4-5.2,7.8-6.8,2.6s4.1-5.1,6.8-2.6Z"></path>
  <path d="M682.1,504.8c15.8-3.5,14,20.5,7,19-3.6-2.4-.6-8.1-2.4-10.8-3.3-4.9-6.8,3.5-7.5,5.8s-1.1,13-4.5,12.3c-8-5,.6-24.7,7.5-26.2Z"></path>
  <path d="M793.1,547.8c-17.4-.5,0-35.9,7.8-33.7s-4.2,14.1-5.4,17.4c-1.9,5.2-2.7,10.8-2.4,16.3Z"></path>
  <path d="M880.4,495c5.8-1.7,3.6,7.8,4.3,11.1,1.1,4.9,7.2,8.7,7.9,16.2,1.7,17.1-11.3,11.8-3.4-2.6-.3-1.5-10-4.4-11.7-12.4s-.7-11.2,2.8-12.2Z"></path>
  <path d="M874.8,494.9c-13.2,4.7-14.7-25-10.2-26.4s4.9,11.8,5.7,14.7,4.9,7.1,4.5,11.7Z"></path>
  <path d="M730.6,497.3l-8.7-2.2-10.1,9.3-2.8-1.7c1.8-11.2,22.5-24.8,21.6-5.3Z"></path>
  <path d="M737.8,600.7v19.8c0,.6,1.9,2.5,1.2,4.2-11.8,3.7-11.6-24.6-1.2-24Z"></path>
  <path d="M766.6,503.3c-6.9-2.8-15.2,19.8-19.2,15.7-.6-10,7.9-17.8,16.3-21.7l2.8,2v4Z"></path>
  <path d="M807.2,646.6c2.3-.3,3.8.3,4,2.8s-2,18.2-5.4,17.4c-5.3-1.2-6.6-19.1,1.5-20.3Z"></path>
  <path d="M764.2,684.9c-10.8-.3-15.4-14.5-10.2-22.8,5.5-1.7,3.9,7.6,4.7,10.9s5.1,7.4,5.5,11.9Z"></path>
  <path d="M811.1,496.1c-9.4,1.9-7.4-22.9-1.8-22.9,7.1,3.7-.3,16.1,1.8,22.9Z"></path>
  <path d="M758.8,581.5c6.4,1.7,1.2,6.1.6,9.1s2.3,12.4-.6,12.5c-7.9.4-8.5-18.7,0-21.6Z"></path>
  <path d="M833.4,499.7c1.3-.3,3.1,1.4,3.6,2.4,1,2.1.1,18.1-3.6,18-6.2,0-4.4-17.6,0-20.5Z"></path>
  <path d="M860.4,561c-1.2,7.8-.4,14.4,0,22.2-8.4,2.8-10.2-23.6,0-22.2Z"></path>
  <path d="M638.8,504.7c8.8-2.4-.2,8.1-.3,8.8-.4,3,3.3,9.4-2.3,10.3-7.2-4-4-17.3,2.6-19Z"></path>
  <path d="M665.6,531c.7,3.1-1.2,6.2-1.2,9.1s3.2,11.2-1.7,10.2c-7.3-1.6-7.2-20,3-19.2Z"></path>
  <path d="M729.4,539.4c-1.8,7.4-2.7,12.1-1.2,19.8-5.4,3.2-7.8-9.2-7-12.9.6-3.2,4.6-7.7,8.2-6.9Z"></path>
  <path d="M699.3,587.5c-7.6,2.1-12.1-19.5-7.8-20.4,4.6-1,6.9,16.8,7.8,20.4Z"></path>
  <path d="M787.1,622.4c-9.8-1.6-6.7-18.9,1.8-18.1,8.3.7-1.4,7.5-1.6,8.1-.9,2.7.2,7-.2,10Z"></path>
  <path d="M821.9,577.9l-1.2,19.7c-8.7,3.3-3.8-13.9-1.5-18.1s0-2,2.7-1.5Z"></path>
  <path d="M773.3,545.4c2,0,1.6,3.7,1.5,5-.1,2.5-.4,15-3.9,14.2-5.5-2.6-1.6-19,2.4-19.2Z"></path>
  <path d="M729.4,659.6c-4.1,0-9.4-5.2-9.6-9.1-.6-9.8,12.8,2.1,9.6,9.1Z"></path>
  <path d="M696.9,615.1c-5.1.8-9.9-12.2-5.4-13.2s6.8,10.4,5.4,13.2Z"></path>
  <path d="M747.3,546.7l2.5,9.5c-5.7.8-6.3-5.3-6-9.6h3.5Z"></path>
</svg>