<?xml version="1.0" encoding="UTF-8"?>
<svg id="Warstwa_1" xmlns="http://www.w3.org/2000/svg" version="1.1" viewBox="0 0 1080 1080">
  
  <path d="M527.6,284.1c11.3,13.5,39.5-4.6,54.8-6,11.8-1.3,8.7,5.3,9.8,13s3.7,23.2,3.8,31c0,6.7-5.3,15.5-3.6,20.8s17,6.3,17.8,14.1-1.8,5.5,0,7.4c.6.4,13.1,1.5,14.1,1.3,2.3-.3,5.3-3.3,7.9-3.8,11.1-2.3,26.9,3.5,34.8,11.4,10.1,10,2.3,20.3,1.6,31.9,2.2,2.2,32.4-14.9,36.6-6.4s-17.6,17.5-19.6,25.5c9-.4,8.3-.2,15.4,4.2,18.4-1.1,17.9,3.2,34.4,8,7,1.1,25.5-1.7,25.6,8.5-2.7,8.5.8,15.5,3,23.4,1.5,11-3.9,17.7-9.5,26.4l-10.6,8s50.4,5.4,50.4,5.4c23.2.4,47.8-26.1,67.1-38,33.6-19.4,69.4-43.7,109.7-43.2,9.3,18.4-2.2,21-11.8,31.9s-2.7,16.2-7.2,27.8c-7.9,8.9,1.3,14.9,3.8,24.4,3.2,16.9-15.1,17.8-15.7,26.4s13.6,12.8,12.5,21.9-4,7.5-3.8,9.7c.4,4.3,10.1,14,10.3,18.3-.7,16-22.2,18-10.8,34.1,2.4,11.6-8.9,16.2-8.3,26.2s2.8,8.2-1.3,19.9-10.1,15.9-4.5,22c1.9,2,7.9,2.6,4.8,5.9-2.5,1.7-11.7-2.1-15.5-2.6-22-2.6-33.5-4.6-54.2-13.7-20.1-10.6-60.5-32.1-67.8-54.2-18.6-14.6-60.8-25-83.6-20.2l-.7,2.1c11.1,3,5.1,17.1,8.4,22.9s21.8,5.2,25.1,15.3c2.9,9.2-10.2,10.7-11.1,13.5.4,7.9,7.7,18.7.5,24.8-20.8,12.6-35.8-17.3-36,19.1-4.4,14.4-21.9-.6-30-1.9s-11.6,3.6-18.9,3c-10.9-2.2-19.3-13.7-26.8,1-5.9,4.6-12.9-1.4-18.8-3.2s-12.2-2.7-18.1-5.3-9.3-6.8-13.6-8.7c-6.9-3-15.3-1.9-22.4-6.3s-1.7-2.8-1.8-2.9c-2.5-1.3-48.1,5.7-55.5,6.3-12.7.1-40.5,4.1-50.4-2.7l1.6-2.6c30.4,5.4,66.8-1.1,97.5-4.3,90.1-12.7,151.3-111.8,247.7-61,5.4,2.3,8.1,6.6,13.9,5.4,8.7-1.8,24.9-13.4,30.7-20.3,21.6-29.1,27.1-66.9-3.2-92.2-10.4-7.6-10.1-1.7-18.3,2.8-16.5,9-33.5,2.9-51.1.9-32.5-3.7-49.1-6.1-78.3-22.5-21.4-12-41.8-31.2-64-41-18.7-8.3-40.9-12.3-60.5-21.2-24-10.8-45.6-26.4-71.1-35-24.3-8.1-42.5.3-66.6.8-17.3.4-35.4,2.7-52.9.9-24.9-8.2-52.1,2-76,9.7l3.2,1.1c.1,3.4-4.9,3.6-5.2,7.1,3.9,6.9,5.3,5.5,3,15.2l-6.2-13.5c-1-3.3.5-5.3,3-7.2-4.8-.1-8.7,6.3-13,9.3-6.3,4.4-13.8,5.6-20.2,9.5s-14,11.7-21,16.2c-17.1,10.9-43.2,14.7-62,21.8-6.3,2.4-11.4,7.2-18.5,7.5,15.7,18.2,36.2,35.9,41.4,60.5-2.2.5-2.4-1.1-3.4-2.5-7.8-10.8-35.2-53.9-45.5-57.4s-14,5.4-20.8,9.9-9.4,1.2-7.6,13.8c25.5,10.6,46.3,34.5,54.5,60.6-.3,1.8,5.9,6.4,4.8,7.4s-9.2-5.4-10-6.4c-2.1-2.7-2.6-7.9-4.6-11.3-4-6.7-25.5-21.9-33.1-24.2s-23.3-.1-34,.6c-1,6.8,2.8,5.7,5.9,8.5,7.8,6.9,11.3,25.6,17.8,33.6s17,10.4,20.6,14.4c27.9,30.4,54.2,53.8,94.8,68.1,23.7,7.4,46.9,14.1,70.6,21.7,22.6,7.9,26.6,12.2,50.9,7,10.2-.4,22.1,1.7,31.8,1.6,13-1.5,27-4.2,39.8,0-5.4-9.4-14.4-15.7-21.2-23.9-4.6-5.5-9.8-16.4-14.4-20.6s-10.1-4.2-7.9-7.5,7.8,1.9,9.5,2.5,2.8-.8,4.2,0c3.4,6.7,12.3,9.4,17,16l-2.1,2.1c4.2,2.6,7.1,10.5,10.1,13.2,5.5,4.8,18.5,7.1,25.4,4.2l1.1,2.2c13.7-10.2,29,2.9,42.5-6.4s8.9-16.7,15.4-24.9c10.2-12.8,25.3-10.3,23.4-33s-9.2-19.3-15.4-24.9-9.8-5.3-13.3-9c-6.5-9.7-11.1-21.7-25.2-17.9-25.1,7-54.5,21.5-78,33.4-8.4,3.5-18.8,7.3-24.9-2-2.4-4.3-12-28.1-6.6-31.1l11.2,23.3c9.2,5.9,9.3,8.9,20.5,3.6,23.7-11.3,50.8-26.3,76.3-33,12.5-3.3,19,2,26.1,11.5,8.5,11.2,9.8,9.2,18.7,17.4,12.5,11.6,22.1,29.3,12.9,45.9-5.5,10-13.1,10.3-19.9,17.3s-8.2,22.9-20.8,29.1-23.4-1.6-34.7,2.5-5.7,5.1-10.3,8.8-8.7,2.5-7.5,7.4,6,13.2,7.4,16c9.1,19.3,49.7,57.2,14.7,68.7-20.2,3.9-33.1-4-50.5-11.6-17.9-7.8-21.6,5.3-37.2,3.3-16.5-2.2-20.4-29.5-25.6-42.3s-11.2-23.1-17.2-34c-5.9-4.3-13.2-3.9-19.2-6-17.8-6-36-15.2-54.1-20.2-28.2-7.9-58.7-14.8-80.9-35.8-15.8-15.4-31.3-25.3-45.6-42.5-25.1-14.7-19.3-22.4-31.8-43.2-2-2.2-6.1-2.3-7.7-6.3-5-12.4,3.2-12.7,12.5-13.5,20.1-1.8,28.6-.8,44,12.2.8.7,2.1,2.8,3.2,1.1-7.6-10.3-16.7-16.8-27.3-23.7-6.7-4.3-17.1-6.4-16-17.5s8.5-8.5,13.9-11.5c22.5-20,22.2-2.1,47.9-17.9,17.5-6.6,38.6-9.1,55.7-17.5,10.3-5,19-15.8,28.7-21.2,4.8-2.6,11-3.8,15.7-6.5,17.1-18.8,46.1-22.7,70.2-26.4l.9-1.2c-2.9-21.3,2.6-43.9,12.7-62.7,2.8-5.2,10.9-22.7,16.1-11.4l-3.1,25.5,2.6,2.5c13.1-14.9,23.8-32,40.6-43.4,10.3,1.1-.8,13.1-2.4,18.9-.3,1.1-1.5,5.3,1.1,4.3,6.3-5.5,7.5-14.3,11.8-21.1s9.5-11.9,11.8-12.6c7.5-2.4,5.2,2.2,7.3,6.1,3.2,6.1,6.6.7,10.5,1.1s2.9,3,5.1,3c7.2-2.3,8.3-2,15.9-1,12.5-4.7,12.7-8.7,29.1-10.3,6.6-1.6,25.8-12.5,20.6,1.8ZM381.1,388.2h20.7c1.7,0,3.3-3.1,4.2-4.2v3.2c9.5-1.7,11.9-1,12.5-10.9s2-2.6-.8-1.8c-6.3,5.1-15.8,11-23.9,11.1,18.7-14.5,30.4-35.8,46.7-52.5l-31.8,43.5,49.8-36.6c-10.8,16.6-34.9,22.5-37.1,44l5.8-9.5-3.7,10.1c6.5-.4,14.2-5,20.1-8.6,2.6-1,29.1-24.2,23.5-13.7-5.4,6.9-28.9,16.2-26.5,23.8,20-2.2,35.2-15.8,54.1-21.2l-31.8,17c6.5-.7,13.4,2.1,19.6.5,4.1.6,16.1,6.1,19,5.8l22.9-10.6c-4.4,5.7-12.5,9.1-19.1,11.7-1,1.3,9.4,5.8,11.1,5.3l40.9-21.2c.7,2.8-.9,1.9-2,2.7-10.5,8.3-23.4,13.9-35.1,20.1l18.6,9.1,30.2-10.7-12.3,7.3-14.2,5.5,11.2,6.3c1-4.1,4.2-1.2,7.4-1.1,19.5.7,35.7-5,53.6-11.7-9.9,11.3-22.1,3-26.5,22.3l22.3-3.2-9.7,3.5-16.8,2.8c1.4,2,8.2,4.9,10.4,5.1s3.3-1.7,5.1-1.9c20.8,2.2,35-20.1,54.6-22.3l-32.9,20.7c-.6,5.7-7.9,4.5-10.6,8.9,5.2,1.5,7.9.1,12.7-1,.5,1.6-5.2,1.9-2.1,3.7,4.5,2.6,10.9,3.5,15.3,6.8l35.6-10.5c2.1,4.6-28.5,10.4-32.9,12.2,25.6,14.8,73.1,57.6,102.9,48.8,10.9-3.9,18.4-17.3,17-28.7s-3.7-10.1-4.1-14,4.3-10.6-4-11.8c-6.5-1-12.2,0-19.6-1.7s-12-5.3-16.9-6.5c-7.9-1.3-15.2,1.8-21-4.5-18.5.9-16-7.9-4.6-17.7,1.1-1,12.8-8.1,10.6-10.1-8.6-.9-25.6,11.2-32.9,7.9-9.1-4.2,1.9-19,.6-27.1s-23.1-18.1-31.9-16.9c-7.5,3.1-23.8,7.3-30.4,1.6-2.8-2.9,1.4-8.4-.1-11s-10.9-5.5-13.5-7.1c-10.2-6.6,0-19.6,0-27.6,0-10.6-5.1-27.5-4.2-38.7-7.4-3.3-57.8,24.9-64.8,0-1.7-1.3-11,3-13.6,3.7-12.9.8-17.9,5.5-28.4,9.8-4.1.7-6.1-.8-9.2-.7s-7.4,3.4-12.3,1.5c-4.4-6.5-8.1,4.5-14.9-4.2-1.4-1.8-1.8-6.6-3.7-5.9-8.8,6.7-11,16.7-15.9,25.5-5.2,9.3-16.3,15.6-14.1-.3l3.4-10.3c-2.3,3.3-6.5,5.4-9,8-9,7.1-20.5,36.2-33.2,30.3-4.2-2.7-.4-19.5,0-24.3s1.3-3.6-.7-3.4c-12.6,21.6-19.9,44.7-19.1,70,2.7.7,1.9-.9,2.8-2,8-10.7,18.2-23.3,24.8-35.1-1.7,15.6-17.5,25.7-24.4,39.2l8-1c2.2-2,27.6-31.5,30.2-30.8.7.8-5.9,8.5-6.9,9.6-6.1,6.9-12.5,13.7-18.7,20.5s-1.7,1.7-3,1.7l9.3,3c9.4-1.3,22.4-20.6,32.1-24.2l-24.4,24.4ZM591.2,412.6l-22.3,3.2,1.1,2.1c-2.1.5-10.6-3-10.6,0,9.8,3,16.7,9.9,27.3,5.1l4.5-10.3ZM967.7,430.6c-49.3,8.2-100.4,36.2-136.8,68.9,4.9-.4,12.7,10.1,15.3,9.6s1-2.3,2.3-3.1c16.4-10.9,30.8-24.5,48.8-32.9,20.1-11.3,82-13.4,70.4-42.6ZM951.9,459.3c-42.8,8.1-71.8,25.6-105,52.5,5.6,12.7,35.3-10.5,44.2-13,17.4-7.1,37.4-10.4,55.4-15.7,5.7-5.1-3.3-13.5,5.3-23.8ZM945.5,486.9c-18.3,5.5-39.5,9-56.9,16.8-8.4,3.8-15.6,9.8-24.5,12.6-3.3,1.1-11.5.2-10.4,4.6s4.4,11.1,5.3,11.3c14.3-.8,27.2-7.4,40.9-10.8s27.8-6.3,41.4-9.5c18.9,1-30.9,10.4-32.9,10.6-16.3,4.1-31.9,11-48.8,12.2l1.1,7.4c22.2,0,54.7-3.6,75.2-10.1,2.2-1.2,14.3-12.8,14.8-15,2-9.7-13.9-20.8-5.1-30ZM861.7,543.1v15.9l80,11.7c1.4-5.5,7.2-10.8,3.8-16.6s-12.2-9.9-12.4-18.6c-23.5,4.1-47.4,11.5-71.5,7.5ZM859.6,568.5c22.4,8.4,48.7,16.1,72.1,20.7,15.9,2,30.1,7.8,14.4-13.3-12.2-6.9-35.7-7.6-49.8-8.5-11.5-1.2-23-5.5-34.5-6.1l-2.3,7.3ZM949.7,595.1c-26-1.7-51.2-12.1-76.7-16.2-4-1.1-10.4-6.8-14-8.2s-2.6,5.7-3.7,6.9v1.4c10.5,4.1,17.6,10.6,28.4,14.7,16.6,6.3,34.9,9.8,51.9,15.1,5.8,1.8,9.1-10.8,14.2-13.7ZM841.5,603.5c34.7,35.3,42.7,46.9,94.4,52-6.3-27.3,15.8-18.9,2.7-42.4-22.2-7.1-54.3-12.3-75.3-25.5-4.4-.6,1.9,4.9,0,6.4-3.1-1.5-9.9-18.6-9.6-6.4,5.5,9.7,23.4,23.4,32.5,30.2,4,2.7,30,11.2,34.4,11.2,0,0,17.5,0,17.5,0,.8,2.5-1.9,2.8-3.8,3.1-30.4,2.6-67.2-14.1-86.9-37-1.1,0-5,7.6-5.8,8.5s-8.1,3.2-6.7,7.1c18.9,35.4,52.6,57.4,93.2,58.7,6.5.3,6.6-7.7,7.9-12.8-40.6,4.9-74.2-20.1-94.4-53ZM719.5,619.5c.3-6.3-6.9-10.9-12.8-10.1-3.3.4-20.4,7.6-23.3,9.6s-1.4,1.3-1.1,1.6l7.4,2.1c-3.9.9-8.4-1.2-11.9-.9s-7.8,5.2-12.5,5.1l9.5,8.5c-4,1.1-15.9-7.2-18-2.6s1.8,1.9,2.9,2.3c11,3.7,25.1,10.3,35.3,16.2-14.3-4.4-30.5-12.6-44.9-15.7-1.1.2-2.3,2.1-3.9,1.9-1.6,2.2,14.9,12.7,15.9,15.9l-21.5-11.5-28.3,14.7c-2.4,3.5,20.4,7.9,24,10.4,1.4.6,24,11.5,15.1,9.3-3.4-1.6-7.6-4.6-11.6-4.3l19.1,12.2c-9.2-2.3-16.2-9.8-26.2-10.4-5.1-1.9-21.9-15-24.3-15.1-14.1,5.3-28.7,12.7-42.6,17.8-2.6.7-7.5-1.3-6.7,2.4l12.7,2.1c.9-1.2-8.4-3.4-3.7-4.2,3.6,3.5,9.3,3.3,13,5.1,6.8,3.2,16,9.6,21.8,14.3,6.7,0,14.1,1.9,20.4,4.7,10.4-15.3,20-8.9,33.4-2.9l-2.1-3.2c2.5-.1,3,2.2,5.8,2.2,2.4,0,4.2-1.8,6.4-2.2,11.8-1.8,25,9.4,29.4,8.3s2.2-11.4,3.4-15.8c4.8-18.5,26.1-2.3,37.7-9.2,2.2-18.7-21.4-17.5-31.9-27.4l27.6,11.1c-1.2-8.5,5.2-10,11.5-12.9-1.5-10.7-17.4-7.1-23.2-15.2s-.4-12.2-8.5-12.2c.9-1.8,2.9-1,2.1-4.2l4.2,2.1ZM930.6,671.5c-42.6,2.3-78.5-25-99.2-60.4-1,1.9-7.3,3.6-6.8,5.6s5.4,7.1,7.1,9.9c11.9,25.9,18,27.3,42.9,39.8,14.1,7.4,34.7,8.3,46.4,17.8-24.4-3.3-68-20.3-83.2-39.3,0,0-15.5-27.5-15.5-27.5l-15.9,5.3c3.7,17.7,18.6,22.7,31.7,31.4,25.8,18.1,55.7,34,88.1,34.4-1.4-6.9,2.4-11,4.2-17ZM442.6,664l-10.6-3.2c4.4,11.4,15.4,15.8,22.3,3.7l-14.8,1.6,3.2-2.1ZM469.1,757.4l-44.6-77.9c-1.9-1.4-3.6-2.6-5.2,0,14.8,24.3,30.2,49.2,40.3,75.9l-42.6-76.2-6.2.4c7.3,9.8,14.1,21.7,18,33.4l-21.2-33.5c-5.8-.6-11.4,2.8-17,.6.4-.8,39,68.3,35.6,56.1-8.1-17.2-19.7-32.4-28-49.5-.5-.9-2.3-2.7-.8-3.5,13.3,19,25,39,36.1,59.3l23.2,18.7c40.8.4,9.9-37.2-3.7-52.6,5.2,12.7,13.1,24,17.6,37s.9,3.5-1.2,1.2l-36.6-66.3h-5.3c15.6,24.5,30.6,49.9,41.4,76.9ZM383.2,703.3c-6.2-6.1-8.9-15.2-12.7-22.9-6.4-.7-11.5-1.9-18-.5l3.2,9.5-5.3-8.5-6.3,1.1c5.5,10,11.7,20.7,16.1,31.1s9.5,32.6,16.6,36.5c12.5,6.9,21.3-6.1,34.2-3.9l-35.6-64.7-3.7-.6,11.7,22.8ZM388.4,680.1l-11.5.4c7.6,12,14.5,24.5,21.4,37,5,6.9,11.6,32.8,21,29.9-10-19.5-23.8-38-34.1-57.1-1-1.8-2.9-3.4-.4-4.9,4.5,7.8,14.7,12.4,13.8,22.2,13.8,15.2,15.7,45.8,38.7,48.9.9-.8-6.6-12.4-7.9-13.8-3.5-3.8,1,4.8-1.6,4.3l-39.4-66.7ZM441.4,681.1c-1.4-.2-4.8-1.1-4.1,1.4l12.7,20.7c-.4-8-7-14.3-8.6-22.1ZM451.1,760.6c-.4-2.1-10.9-9.3-11.7-8.5.5,5.9,6.5,8.1,11.7,8.5Z"></path>
  <path d="M240.8,454.3c32.9.8,30.5,44.7,4.3,51-54.9,9-60.2-50.7-4.3-51ZM211.4,490c5.2,12.5,28.6,13.7,38.1,6.8,19.8-14.2.5-39.3-19.3-36.3-19.7,4.1-21.9,17.8-12.5,33.7l-6.4-4.2Z"></path>
  <path d="M317.4,455l5.3,15.9v-9s1-3.7,1-3.7c3,9.8,4.3,22.9,9.1,31.7,10.1,18.4,33.7,22.3,24.6,48.1-4.8,13.7-8.6,13.4-17.2,22.1-15.8,20.1-11.6,22.3-35.9,35.9-7.6,6.9-11.7,10.6-20.4,17-4.5,3.3-6.6,8.5-13.8,8.5,0,0-22.8-2.1-22.8-2.1-1,1.1,4.4,6.5,1.1,7.4-1.4-14.4-24.2-6.6-30.8-18,23.1,1.5,48.4,18.1,68.4-1.1,17.5-14.1,37.7-27.2,48.3-47.2,7.6-9.4,14.5-10.8,18.8-24.7,6.6-21.1-10.3-27.1-20.5-39.5-3.7-3.6-24.5-41.8-15.4-41.4Z"></path>
  <path d="M300.5,445.5c-4.5,22.2,1.4,24,11.5,42,4.9,10.7,13.2,38.5,11.7,49.6s-8.2,13.2-11.8,20.1c-5.1,9.9-4,19.1-13.1,27.2-14.5,14-28.8,14.5-46.7,21.2-16.3,2.3-27.3-7.9-40.5-15l-1.3-5c15.4,4.1,25.2,19.5,42.9,14.8s28.8-7.9,41.4-19.1c8.6-7.7,8.2-17.1,13.4-26.9s9-11,10-14.4c3.2-10.9-6-41-11-51.7-7.5-16-17.5-20-9.2-40.7.7-1.7-.1-2.6,2.6-2.1Z"></path>
  <path d="M411.9,603.5c9.3,6.7,24,11.7,35.7,12.6,2.8.2,6.4-1.7,10,.1l-1.8,3c-12.6,1.1-24,4.4-36.4.2,6.2,5.1,16.1,7,23.6,9.8,4.6,1.9,16.8,1.3,17.8,5-4.6,3.3-39.3-10.2-45.5-13.4-11.7-6-11.6-8.9-19.2-16.9s-7.1-6.2-8.5-5.3l11.7,12.7c-3,3.5-14-14.3-18-15.9,8.5-2.4,17.2,3.1,25.9,3.8,12.1.6,30-.3,42-3.2l-1.1,2.1,3.2,1.1-21.7,4.3h-17.5Z"></path>
  <path d="M280.3,437c1.2,6.6-7.3,5.6-5.1,13s10.6,12.1,12.7,16c5.6,10,8.1,25.7,1.3,35.6s-8.4,9-6.6,2.9c2.7-9.3,6.6-15.2,4.8-25.4-2.5-14.9-33.2-32.3-7.2-42.2Z"></path>
  <path d="M456.4,578.1c-25.3-.4-13.7-1-34.7,11.4-9,2.8-30.4,6.8-36.9-.8-.4-3.4,9.9-1,12.6-1.2,23.9-3.2,27.3-15.4,52.9-13.4,2.1.2,5.3,1.8,6.1,4Z"></path>
  <path d="M352.5,563.2c.5,5.3-6,6.8-6.7,11.4-.9.8-3.8-.8-2.9,3.4-.3.4-2.2-1-3.2-.5s-8.9,9.8-9.9,11.2c-1.9,2.5,1.3,4.4-5.9,2l1,3.7-2.1,1.1-2.1-1.6v5.3s-4.3-1.1-4.3-1.1c4.2,7.5-18.1,25.1-25.5,18.6,2.9-3.4,7.3-3,11-5s.5-4.1,5-1.9l-1-3.2,2,1c.2-4.2,5.4-6.8,3.3-10.6,4.4,2,4.5-1.8,6.9-4.3,8.7-8.6,23.8-25.7,34.5-29.7Z"></path>
  <path d="M357.8,493.2c-.7,3.8,3,5.6,4,8.2s1.3,7.3,2.9,10.9,7,7.9,7,14.3-5.6,20.7-10.2,27-6.8,4.5-5.6-.2c18.4-28.4,11.8-27-3.4-53.3l4.2-.5-2.1-4.7,3.1-1.7Z"></path>
  <path d="M449,646c0,1.8.6,2.3-1.5,2-10.6-1.2-20.1-6.5-27.7-13.7-4.3-6.7-16.5-13.3-18.5-20.2,14.7,12.3,26.9,30.3,47.7,31.8Z"></path>
  <path d="M135.7,542.4l4.6,3.8c-7.4-2.4-12.7,2.1-20.2,1.1.9-4.4,8.3-1.6,9.5-4.2l-11-.2-1.8-3c6.3-2.4,13-.2,18.7,2.5Z"></path>
  <path d="M340.8,490c-6.1-5.1-8-15.7-9.5-23.3,5.5,6.3,6,15.8,9.5,23.3Z"></path>
  <path d="M348.9,589.4c-1,1.2-3.5,1.9-4.4,3.5-2.9-3.1,8.1-12.7,10.1-15.9-.3,3.8-3.2,9.6-5.7,12.4Z"></path>
  <path d="M687.7,475.2c-1.9-3.8,17.1-7.1,20.6-9.7,2.6-1.3,15.4-10.5,16.6-9.4.4,3.3-26.4,16.4-28.6,18l36.1-2.1c-1.5,2.5-21.6,8.4-24.4,9.5,8.6-.9,17.3-1.1,25.9-2.2s12-3.6,8.1.7c-4.2,4.6-16.6,7.1-17,15.4-4.8-2.3,0-7.3,2.7-9.5s6.3-2.7,7.9-5.3c-11.9,2.2-23.9,3.8-36.1,3.2l1.1-3.7,14.8-4.8h-27.6Z"></path>
  <path d="M507.4,341.5l39.2-31.8c-3.4,9.1-29.7,27.1-39.2,31.8Z"></path>
  <path d="M684.5,440.2l-6.4,3.2,3.2,3.2-28.1,6.4.2-1.9,14.1-4.5-19.1,3.2c-1.9-5.2,31.1-7.3,36.1-9.5Z"></path>
  <path d="M655.9,420c-2.1,7.4-22.4,14.4-29.7,17,.6-3.3,26.9-15.2,29.7-17Z"></path>
  <path d="M561.5,316.1l-21.6,21.9-4.9,1.5c1.6-3.6,21-22.2,26.5-23.3Z"></path>
  <path d="M495.7,326.7c-2,2-20.5,26-23.3,25.5-1.7-.7,22.5-28.3,23.3-25.5Z"></path>
  <path d="M662.2,430.6c-7.5,3.4-22.7,9.5-31.8,9.6-.3-1.5,1.8-1.4,2.9-1.8,9.2-3.4,19.8-4.4,28.4-9.8l.5,2.1Z"></path>
  <path d="M415,329.8c-.7,5.3-8.7,21.4-13.8,22.3,4-6.5,7.3-13.6,11.2-20.2s-.2-2.7,2.6-2.1Z"></path>
  <path d="M679.2,450.8c.5,2.9-.6,1.8-2.3,2.4-5.4,1.9-12.1,3.1-17.8,4-1.7-4.1,17.1-6.5,20.1-6.4Z"></path>
  <path d="M667.5,432.8l-13,5.6-14.6,2.9c3.7-1.1,24.1-8.9,27.6-8.5Z"></path>
  <path d="M469.2,305.4l-11.7,17c.2-3.8,7.1-18.4,11.7-17Z"></path>
  <path d="M679.2,455c.5,2.9-.6,1.8-2.3,2.4s-14,4.4-14.6,4c-2-3.6,14.3-6.7,17-6.4Z"></path>
  <path d="M682.4,458.2c2.9,2.5-13,7.7-14.8,6.3.8-2.9,14-7,14.8-6.3Z"></path>
  <path d="M694.4,633.9l25.1,16.3c-13.7-2.5-27.2-7.1-37.1-17.5,2-1.8,7.1,3.8,8.5.5l-10.6-4.2,4.2,1,.5-4.2,9.4,8.1Z"></path>
  <path d="M721.7,674.6c-17.8-5.3-37.9-12-52-24.4,18.3,5,36.4,13.6,52,24.4Z"></path>
  <path d="M731.2,643.9c-10.5-3.4-21.6-7-29.7-14.8,11.3,1.4,21.7,6.8,29.7,14.8Z"></path>
  <path d="M616.6,681c-6.9-1.5-13.2-12-20.1-9.5v-4.2c.7-1,19.3,11.2,20.1,13.8Z"></path>
  <path d="M653.7,657.7c1.4,3.7-18.3-4.4-14.8-6.4l14.8,6.4Z"></path>
  <path d="M383.2,727.7l-10.1-14.8-12.1-25.5c10,11.1,17.1,26.4,22.3,40.3Z"></path>
  <path d="M374.7,736.2c-1.7-3.2-9.6-15.5-9.5-19.1l10.1,13.8-.5,5.2Z"></path>
  <path d="M945.5,557.9c.6.6.8,2.2-1.3,1.9-13.8-2.3-27.5-5.2-41.6-6.1-4.7-1-43.3,2.2-39.8-3.2,26.8.3,57.3-2.1,82.7,7.4Z"></path>
  <path d="M248.5,472l-4.2-3.2c14.2,21.2-12.3,25.3-18.6,11.7-1.2-3.8.8-12.7,4.6-14.6,7.5-3.7,16.5-3.6,18.2,6.1Z"></path>
  <path d="M231,494.8c9.8,8.2-15.7-4.6-12.3-6.8,4.2,1.7,8.6,4.2,12.3,6.8Z"></path>
</svg>