<?xml version="1.0" encoding="UTF-8"?>
<svg id="Warstwa_1" xmlns="http://www.w3.org/2000/svg" version="1.1" viewBox="0 0 1080 1080">
  
  <path d="M518.1,319.6l-8.8,20.9c-13.3,24.1-43.8,46-71.6,48.5-9.1.8-19.1-1.3-27.8,2.5s-11.3,13.3-16.4,19.5c-8.4,10.2-20,16.1-33.2,17.3-18.2,1.7-25.4-9.8-45.9-3.3s-27.3,24.8-36.1,26.7c-11.9,2.6-9.9-5.8-13.2-14.3l-27.5,33.6,27.4-38.2c7.4-37.8,37.8-65,62.3-92.5s14.9-20.8,25.8-28.6c-2.7,0-4.6,1.8-7.4,2.1-15.3,1.9-30.6,3-45.9,4.6-17,1.8-27.5,6.4-43.2,10.6-21.8,5.9-43.9,9.9-63.6,21.6l-4.3-1.9c-2.4-4.2,9.2-16.4,12.9-17.5,10-2.8,17.2-5.9,26.6-11.5s20.4-16.1,25.1-29.4l2.2,2.2c3.3-21-8.6-33.2-17.4-49.3-9.7-18-9.6-37.8-6.3-57.6,24.5-8.6,45.6,10.4,64.8,22.6s13.2,6.8,19.3,11c14.2,9.7,55.1,48.4,69.2,49.8,2.1.2,3.9-.9,6.1-.6,3.8.5,21.3,8.6,23.5,3.4l-3.4-1.7c2.8-.7,5.9,1.2,8.4,1.1s10.1-4.4,7.4-6.2c-33-12.4-71.7-17-91.8-49.6-10.2-16.5-17.1-35.1-18.7-54.2s-2-3.7-1.7-4.9c.5-2.4,4.3-2.1,6.2-.7s12.3,20.1,15.3,24c38.1,50.5,72.6,14.1,114.3-2,21.9-8.5,36.1,0,55.8,8.7l11.5,14.3c-9.5-29.5-19.3-60.2-21.3-91.4-1.1-16.9,1.7-33.8,1.2-50.5-.2-7.3-3.5-15.6-.3-22.7s.1-1.8,2.5-1.4l.6,6.7c8.6,6.8,12.4,14.6,23.6,17.9,48.1,13.8,82.6,27.4,79,85.9-1.1,18.2-5.2,40.9-8.1,59.2s-6.3,28.9-8.1,43.5-1.6,3.6.6,3.4c7.2-23.6,8.9-48.6,15.8-72.3,7-24.1,22.1-43.9,40.3-60.7,7.5-6.9,23.7-17.1,29.1-23.6s1.6-4.8,3.4-6.7l9,1.8c-5.4,6.7-4.7,12.2-2.9,20.2,4.2,18.4,18,34.8,24.7,52.7,7.3,19.3,9.7,35.9,4.7,56.3-4,16.3-12.5,36.2-28.8,43,14,17.1,30.9,15.1,50.5,10.1s37-13.5,49.9-27.5c6.1-6.6,26.4-32.1,29.1-39.3s1.5-15.9,8.3-17.4c9.4-2,.9,13,0,15.7s-1.9,6.1-2.2,9c-4.5,39.8,5.9,81.7-15.3,118.2-1.4,2.5-8.6,10.2-7.1,12.4,19.4,7.4,45.8-4.7,62-15.8s21.3-24.6,30.1-41.7,2.4-11.2,6.4-8.6,3.6,18.1,3.5,21.9c-.2,10.2-.3,23.6-1.2,33.6s-2.8,10.4-3.3,14.7c-1.7,15.7,26.7,50.4,33.8,65.9,2.3,5,9.5,28.3,8.8,32.7s-11,7.9-14.3,9.3-6,1.1-7.1,1.9c-1.6,1.2-1.1,4.7-2.2,6.5-7.9,13.3-18.6,26.1-33.4,33.1-13.2,6.3-46.5,5.2-59.1-2.2-2.2-1.3-4-4.3-6.3-5s-4.6,1-5.4.6-.8-2.2-2-3.1c-2.6-1.8-5.7-2.8-8.3-4.6,4.3,11.2,11.4,21.7,11.3,34.2-.5,58.2-50.5,133.9-81.7,182-11.7,17.9-22.5,35.5-33.7,53.8-10.9,17.8-22.5,30.2-34.3,46.5-22.8,31.3-41.6,73.5-73,97.5-5.6,4.2-36,24-40.9,25.3s-10.7-.5-16-.3-12.2,4.2-18.5,5c-10.2,1.3-34.6-5.6-44.4-10-29.9-13.2-38.5-44.8-56.8-68.8-8.7-11.4-20.3-20.2-29.7-30.9-19.6-22.1-40.5-51.1-53.9-77.4-6.4-12.7-10.9-26.6-18.3-38.9-20.1-33.6-48.1-66.3-61.3-103.6-20.8-58.6-37.2-104.6-9.8-164.5,6.2-13.6,26.4-29.8,38.5-38.9,1.1-.8,5.7-4.9,6.6-4-2.1,1.7-2.6,4.7-3.7,6.3s-3.8,5.1-4.1,5.5c-1.8,2.1-6,4.4-7.9,6.7l2.2,2.2c-4.6,4.4-8.4,9.6-12.1,14.8-4.6,6.4-21.4,29.9-22.6,35.8s-.8,4.2,1,3.8c1.7-3.4,4.3-7.7,6.8-10.6s2.5-3.2,2.2,0c-22.9,23.4-16.3,58.1-8.1,86.7s20,64.2,36.4,92.6,32,46.5,44.9,69.6c10.4,18.6,17,39.3,28.5,57.9,16.6,26.9,39.4,49,60.5,71.9,23.6,25.5,34.2,68,69,80.2,21.5,7.5,46,.9,68.7,2.6,10.9-7.6,23.3-13.1,34.1-20.8,35.3-25.1,53.4-68.5,78.4-102.2,5.8-7.8,13.1-14.7,18.9-22.6,12.9-17.8,22-38.7,33.9-57,17.4-26.8,36.8-51.9,52.3-80.1,17.3-31.6,49.5-92.6,39.1-128.1s-28.1-59.8-37.7-72.2-9.5-11.6-11.1-12.5-3.2.2-5.1.1c.7-6.8-6.5-11.4-10.4-17.1-9.7-14.5-11.6-26.4-30-32.8s-7.2,1-10.1-6.7c-1.1-2.8,3.6-1.4,4.5-1.1,3.1,1,16.1,11,17.9,9.6l-6.7-16.8-3.3,1.1c-.8-7.8-11-7.7-16.8-10.1-1.6,15.5-5,30.2-10.1,44.9-2.1.2-.9-2.4-.8-3.6.4-3.8,1.8-7.6,2-11.5s.7-4.2-1.2-4c-.5,6.3-4.5,12.5-5.6,18.5s3.1-1.2,2.3,2.2-2.9,5.5-3.8,8.3-.4,5.6-1.6,8.8-3.6,8.6-5.8,6.5l2.8-7.3-10.3,11.1c-1,.2-5.2-5-5.3-5.4-.4-1,.5-2.6.2-3.7-1.4-5.1-2.9-10.3-4.2-15.4l-2.2,5.6c.1-6.5-1.8-13.5-7.9-16.8l1.1,15.7c-2.7,3.7-1.7-21.5-5.6-21.3v15.7c-1.5.3-1.8-2.1-2-3.1-.8-5-1.2-10.9-1.4-16-2-.3-1.1,2.5-1.1,3.9-.1,2.7,1.6,11.6-2.2,10.7v-16.3c0-.2-1.5-1.8-2.2-1.7-.4,3.8.5,8.1,0,11.8s-.9,3.5-2.2,1.7l-.2-13.8-6.5-3v15.7c-2.6.2-2,.4-2.2-1.7-.7-5.1.7-10.1,1.1-15.2h-4.5c-1.5,1.4,3.5,11.9-1.1,13.4-2.4-4.6.7-10.7-2.8-14.6-2.6-.6-1.8,2.3-1.7,4,0,2.6.6,4.8,1.2,7.2h-3.4s0-7.8,0-7.8c-2.2,0-.8,8.3-3.9,6.7s-2.1-7.7-2.8-10.1l-1.1,9c-3.9-.6-1.5-9.4-2.2-10.1h-4.5c-.4.3,1,13.2-2.2,9l-.5-9-6.2-1c-1.2,1.1,3.2,9.1,0,10.1l-1.7-9c-9.6-7.8-4.9,5.6-6.7,5.6l-1.1-6.8-5.1-1.1c-1.8,1.8,3.9,11.2-1.1,10.1l-1.9-11.3-8.2-1.1,2.2,11.2c-1.8,1.6-19.7-2.4-22.4-4s-2.9-4.7-5-6.2c-5-3.4-16.5-.5-22.8-1.2l-2.3-4c-.8-5,17.9-1,21.2-1.5-1.7-5.4.3-13.4-4.5-16.8l1.1,11.2c-1.8-.3-4.5-5-4.5-6.2v-23ZM584.3,225.3c1.4-8.9,3.8-17.8,5.3-26.7,4.1-24.9,11.9-65.4,2.8-88.5-11.3-28.5-43.9-38-70.9-44.7l-15.7-8.4c.7,7.7-1.9,15.5-2.3,22.9-1.9,35.7,8.2,104.4,31.5,132.4,5.6,6.7,14.3,12.2,19,19.7,1.8.3,1.2-1.6,1.1-2.8-.5-5.9-2.9-12.5-3.4-18.5l-2.2,3.4,2.2-10.1,6.5,32.2c1.3,3.8,19.7,15.4,21.6,13.8,2-9.6,4.9-18.1,2.3-28l2.2,3.4ZM631.4,244.4c-.5.8-.4,2.4-1.2,3.7-3,4.5-6.6,7.4-11.1,10.3,4.7,4.6,11.8,1.5,17.3,4l1.7-2.3c-1,3.5,7.6,3.6,6.8,0h1.1c0,.6-.1,1.6.2,1.9,1.5,1.3,19.3-1.4,22.5-2.3,20.7-5.7,28.5-15.7,34.9-35.8,8.1-25.7,4.3-45-6.9-68.9-8-17.1-21.5-33.1-21.5-53.1-1.7-.5-1.9.5-2.8,1.1-17.8,11.9-40.4,34.5-51.5,52.8-17.7,29.2-16.9,64.5-27.6,96.4,4.9-1.7,12.4,2.3,16.1,1.9s9.3-5.4,11.8-7.1c10.4-7.1,21.7-18.7,27.2-30,1.2-2.3,1.9-4.9,2.1-7.5l2.2.5c-4.5,11.3-7.7,23.1-9.8,35.1s-2.5,10.2-.3,14.8c-3.3.6-1.8-.8-2.3-2.7-1.8-7.8,3.7-20.3,4.5-28.6l-7.7,7.4-1.3,6-1.7-2.2c-.5.2-2.2,3.4-2.8,4.5.2-.4.4-2.4-.6-2.2l-18.5,14.6c6,2.2,16.9-7.9,19.1-12.3ZM361.1,210.7c-2.5,1.8-16-8.1-18.5-10.1l-16.3-23.5c8,30.2,22.9,52.7,52.4,64.8,11,4.5,45.5,17,55.9,18.1,11.6,1.2,29-9.6,43.7-10,7.1-.2,12.1,3.2,18.9,3.3l3.5-6.6,1.1,4.5,10.7-6.2c-23.1-9.2-44.8-22.8-70.6-13.5l15.7,3.9c-9,1-18.7-3.1-27.5-2.2s-10.8,4.2-16.8,4.5c-2.5.1-3-.2-.3-1.4s9.6-4.3,12.9-5.1c12.9-3.1,32.5-6,45.6-4.6,19.2,2,28.4,16.1,49.6,14.6.3,0,1.5,4.5,5.1,1.4l3.8-9.4-.6,7.8c2,2.3,7.5-7.6,5-10-9.3-8.5-16.5-25.1-25.3-33.1s-15-10.1-19.4-12.1c-30.7-13.7-43.6,3.6-69.6,15-18.5,8.1-39.8,15.2-59.6,7.6l.6,2.2ZM366.7,302.7c1.2,1.3,5.3-3.7,6.1-4.6,1.8-2.2,11.6-16.9,11.7-18.6l-.3-1.5c-5.4-2.2-9.2-6.9-13.7-9.9-33.7-22.4-64.3-49.7-99.9-69.5-10.1-5.6-20.5-9.6-32.4-8.1-1.5,11.7-2,24.3,0,36,1.7,9.8,9.6,17.8,14.3,26.1,7.3,13.1,11.4,27.2,9.9,42.3,4.7-.4,9.6-10.5,10.9-11.2s9.6-2.5,10.4,0c-7.1-1.3-10.3,6.3-15.1,10.1-1,2.7,1.4.7,2.3,0,1.9-1.6,4.6-6.4,7.3-5.1l-25.2,26.3-2.2-3.3-27.5,19.1,37.1-9.5c-1-4.5,21.4-25.2,20.1-26.3-2.1-.5-2.7,1.2-3.9,2.2-4.7,4-14.5,16.4-18.5,18.5s-2.1.7-3.3.6c-.2-.2,1.4-2.7,1.8-3.3,2.4-3.4,17.8-17.6,21.8-20.9s5.9-3.7,8.4-6.1c1.3,0,1.4,1.5.8,3s-9.1,10.6-8.1,11.6c8.5-3.7,11.8-13.8,20.8-16.8,2.1,1.6,1.4,1.3.8,3s-4.3,8.9-5.3,10.4-15.7,16.4-16.8,16.9-1.9-.2-1.7-1.7c.4-2.2,16.1-17.4,19.1-21.3s1.3-2.3,2.2-3.4l-1.7-.5c-6.5,6.4-15.8,19.3-22.9,24.2s-8.1,2.2-10.2,8.3c1,.8,11.9-3.5,14.4-4.1s15.1-2.3,15.7-2.8.5-2.8,1.8-4.3c6.7-8,16.6-14.5,22.5-23.5.9,6.7-10.7,10.2-10.1,15.7,1.6-1.3,15.9-16.1,17.4-14.6-1.1,5.2-6.3,9.4-9.4,13.5s-2.8,9.3-9.6,8.9c-1.3-1.2,5.2-5.8.6-5.6l-10.7,10.1,20-1.4,12.6-18.3-4.5-1.7c6,.2,7.5-1.9,10.7-6.7,2,1.9-4.7,7,0,6.8s4.5-1.4,5.1-4.5h2.2s-1.1,3.3-1.1,3.3c3.4,1.3,5.9-2.1,7.8-2.6s3,.4,4.5,0c4-1.2,7.2-4.6,11.2-2.9l-5.6,3.7c-12.1-1.2-15.8,10.8-20.2,19.8,9.6,1.1,9.9-10.6,16.3-15.7,1.8,1.3-1,2.7-1.3,4.1s.8,2.4.2,3.7-3.5,2.1-2.8,4.5c8.7-.4,10.5-13,15.2-19s1.9-2.7,3.9-2.3c-2.8,5.7-6.7,11-9.9,16.5s-2.5,2.8-.8,3.7l21.3-25.8c1.8,1-.4,2.5-1,3.5-1.8,3-14.6,19.3-13,21.2ZM704.4,287c.2,2-2,7.7-2.8,10.1-3.1,8.9-12.5,25.5-13.8,33.4s5.6,7.7,10.9,8l15.8-39.2-14.5,39.9,4.4,1.6,12.2-32.2,5.8-10.5c-2.4,12.9-13.2,27.9-15.2,40.4-.5,3,.8,5.4,4,5.2l22.4-55.6-19.7,57.2,6.2,3.4,6.2-18-5,19c8.9,4,17.7,5.4,27.5,4.5,33.2-2.9,50.6-18.2,58.4-50.4,5.9-24.2,2.9-45.8,3.8-70.2.2-4.5,2.1-9.2,1.2-14-17.6,20.7-28.9,39.8-55,51-9.8,4.2-22.2,8.2-32.5,10.7l2.2,2.2-18-1.1,1.1,2.2c-3.6-.6-3.8,0-5.6,2.3-.1-1.5-.3-2.5-1.8-3.3l-6-1.1-15.8,36.9h3.3c2.5-7.6,6.4-15.9,10-23.2s2.6-5.8,4.7-7.1c-.2,3.3-1.9,6.7-3.2,9.7-2.4,5.7-9.9,18.1-10.9,22.8s.2,4.1.7,4.5c2,1.8,2.3-1.4,2.7-2.3,5.2-10.5,9.3-28.7,16.3-37ZM535,264.6c1.7,0,2.7.4,3.9-1.1s5.7-22.6,5.7-24.6-1.2-2.3-2.3-3.4l-7.3,29.2ZM530.5,264.6c2.1-.4,1.9-2.3,2.4-3.8,2.1-6.3,3.1-14.3,4.3-20.9-2,.5-2.5,4.7-3,6.5-1.8,6-2.5,12.1-3.7,18.2ZM545,262.3c.9-5.7,3.4-12.3,4.1-17.9s1-3-1.2-4.5l-6.2,21.8,3.3.5ZM529.3,255.6l2.2-11.2c-.1-.2-3,1.2-3.4,1.9-1.6,2.4-1.7,12.5,1.2,9.3ZM550.6,262.3c-.2-5.4,4.9-13.2,1.7-17.9l-5,17.4,3.3.5ZM554,261.2c3.8-1.8,6.3-10.2,2.8-13.5-2.2-.5-2.3,6.3-2.5,7.6-.2,1.9-.6,3.9-.3,5.8ZM559.6,259c5.8-.4,7.9-5.2,2.8-8.9l-2.8,8.9ZM514.7,263.5c-.6-1.9,3.7-9.5.6-10.1-3.5-.4-4.6,9.5-3.9,10.1h3.3ZM521.4,264.5l2.2-8.3-4.3-1.6-2.3,10.1h4.4ZM584.3,261.2c-2.7-3.5-8.3-4.7-12.3-5.6l3.4,2.2-1.1,3.3h10.1ZM487.7,256.9l-9.9,3.2c9.7.7,17.1,6.7,25.8,10.1-4.8-4.8-12.3-7.5-15.9-13.3ZM506.9,271.3c-7.7,2-15.4-5.1-23.3-7.6-18.6-6-15.8.8-29.2,3.9-3,.7-8.3-1.2-11.7-.6-12.7,2.2-30.7,18.1-41.3,24.9-18.3,11.8-41.1,20-56.6,36.5-12,12.8-26,29.6-37.5,43.2-16,18.8-39.7,46.2-33.1,72.3,3.9,4.9,14.5-10.5,17.9-13.5,10.9-9.5,27.9-16.5,42.6-14.5s11.9,5.9,22.6,5.6c28.1-1,27.5-15.2,42-30.9s33.8-6.9,48.9-10.5c36.7-8.7,59.2-42.3,68.1-76.7,1.4-5.4-.2-12.4,4.1-17.7l-17.7-.9-8.1,14.3c-2.1.3-1-2.3-.6-3.4,1.3-3.6,4.3-5.5,5.1-8.9-1-1.1-14,13.7-17.9,11.2l10.1-13.4-11.4,1.3-23.3,7.1c5.3-3.4,13.5-6.9,19.7-8.5,5.5-1.4,17.5.8,17.4-7.8-24.2,4.3-46.3,17-66.5,30.5-10.7,7.2-22.8,16.2-32.7,24.5-10.6,9-19.6,20-29.7,28.6s-2.2,2.9-3.4,1.1c21.7-25.1,48.1-46.5,76.4-63.9s46.3-26,61.9-25.1,9.9,5.1,15.4,5.3c-2-2.3-5.4-6.2-8.4-4.5l.5-2.2ZM615.5,273.3c-16.3-7.3-30-7-47.5-5.4-2,.2-6.1.5-7.3.6-7.1.9-21.9,2.1-16.8,11.8-5.7-3.5-8.9,2.7-11.4,7.1-7.2,12.5-11,27.8-6.9,42.1s9.1,14.4,10.5,12.5c-1.9-10.4-2.6-19.7-1.1-30.3l-6.7,17.9c-.8-12.4,9.6-32.4,20.3-38.6s8.8-4.8,10-.7c-13.3-.5-21.2,14.9-22.4,26.4s-.8,4.2,1.1,3.9c.2-4.6,1.7-10.6,5.6-13.5-4.2,9.5-6.7,17.8-5.5,28.5s1.8,10.8,6.6,11.9l1.1-4.5c-2,8.5,9.3,9.6,15.5,10.9,10.3,2.2,21.2,2.4,31.1,3.6,16.6,2,31.8.7,45.4,11.9,4.4,3.6,16.9,17.4,19.3,22.2s2,10.2,5.4,13.1c7.3-18.4,20.1-41.8,18-62.3-.4-4.1-4-21.7-6.2-24.1s-3.6-1.1-4.5-2.2.6-2.2-.4-4c-2.1-3.5-30.6-31.6-34.5-34-5.4-3.4-11.6-5.3-17.7-7l-.9,2ZM657.2,291.5c.8,1.5,2.1,4.2,3.9,2.2s14.3-20.9,14.7-22.3,0-3.3-1.2-3.4-10.3,12.9-11.7,15.3.4,7.4-5.7,8.2ZM650.5,283.7c3.5-3.4,6.5-7.7,8.9-11.8s1.4-2.4-.6-2.8-9.6,11.3-8.4,14.6ZM668.5,269.1c-3-2.4-11.9,10.5-12.3,13.5,1.9-.7,13.4-12.6,12.3-13.5ZM668.4,301.6c.8-5,15.7-23.8,14.1-26.9l-3.4-3.4-15.1,24.7,3.3-2.2-3.3,5,4.5,2.8ZM513.6,282.5c-6.6-.5-19-12-19.1,0,6.2-1.1,9.9-.3,15.7.6s3.7,1.5,3.4-.6ZM684.2,276.9c-3.1,9.4-9.7,17-14.1,25.8l2.3,3.4,15.1-26.5-3.3-2.7ZM401.5,280.3l-7.7-.9-8,13.3,9-4.5-2.2-2.2c1.2-.3,11.1-3.5,9-5.6ZM695.4,280.3l-5.5-1.1c-.9,6.9-16,25.1-14.5,30.5s3.4,3,3.2,5.3c.8.5,2.1-1.8,2.5-2.6,4.2-7.8,10.5-20.8,13.8-28.9s1.1-2.6.6-3.3ZM390.2,280.3l-5.1,1.1-9.5,16.8c3.6-.4,16.4-16.2,14.6-17.9ZM345.4,291.5c-4.3-3.8-12.8,10.1-14.3,13.1s-2.1,1.8-.3,3.1l4.9.4,9.7-16.7ZM336.4,292.6c-2.3,0-4.2-.5-6.2,1.1s-8.7,11.7-9,12.4c-.7,1.8.5,2.8.6,4.4,3.5,2.7,12.7-15.3,14.6-17.9ZM878.7,360.4c15-16.9,12-38.8,13.1-60.4,0-1.2.7-5.3-1.2-5.1-7,30.9-58.1,62-87.8,56.9-3.5-.6-10.2-5.3-11.3-5.2s-10.4,5.9-13.1,7.1c-4.5,1.9-25.3,6.8-24.6,11.1,6.2,8.4,15.9-6.2,23.5-7.2l-15.7,11.8c-.9,1.9,2.6,2.7,3.7,2.5,4.6-.7,12.9-12.9,17.6-15.4.3,3.9-16.5,15.7-14.6,17.9,10.4,4.4,14.6-8.9,22.4-13.5.4,3.8-15.4,14.7-13.4,16.8l20.8,3.5,15.1-18.1-12.3,17.4c-1.1,2.4,4.7,2.2,6,2.9l16.4-22.5-13.4,21.9c12.7,4,16.6-15.3,24.7-21.9-.9,7.1-11.4,15.4-13.4,20.8s.3,1.8,1.7,1.7c7.5-.4,15.7-17.4,21.3-22.5,1.3,1.8-1.4,5.1-2.3,6.6-2.6,4.2-5.9,8.4-9.4,11.9-1.5,3.7,10,.5,11.2,0,6.7-2.8,14.1-17,18.5-23,2.4,4.1-11.9,19-10.7,20.2,9.8-2.7,20.7-8.9,27.3-16.4ZM546.2,362.2c.9-4.5-2.4-7.5-6.7-7.8.2,3.9,2.3,7.9,6.7,7.8ZM548.6,367.6c10,5.5,7.1-11.3-1.3-9.9l1.3,9.9ZM893.9,368.9l-5.6-11.2c-3.9,6.8-.9,8.5,5.6,11.2ZM734.6,384.6v-19.1l-1.1,10.1c-4.9-3.7-1.1,8.8,1.1,9ZM929.8,445.1c-1.7-9.9-4.1-20.9-8.5-30s-17.9-31.6-23.5-38.2-12.2-11.5-16.1-9.6c-30.4,25.5-70.1,27.2-106.8,15.9s-6.9-3.2-10.3-4.4-3-.8-3,.8,18.2,17.3,20.9,19.4c12.5,9.5,31.8,22.4,45.6,29.6,13.1,6.7,58.4,20.1,73.2,22.2s9.5,1.4,11.1-3.3l2.2,3.2,15.1-5.6ZM745.9,402.6v-26.4c0-.4-3.3-3-3.9-3.9-1.7,2.8.4,6.6.6,9.5.2,5-.6,10.9,0,15.6s1.7,5,3.3,5.1ZM754.8,411.5v-19.6c0-1.9-2.1-6.9-1.3-9.9l-4.3-3v28c0,0,1.4-.2,1.8.4,1.1,1.4,1.9,3.6,3.8,4.1ZM763.8,421.6c-1.4-9,0-19.7-1.4-28.3-.5-3.1-1.4-7.7-5.3-7.6,2.1,10.9-3.1,29.2,6.7,35.9ZM768.3,412.7v-17.4c0-.2-2.5-2.8-3.4-2.8.7,7.8,0,17.8,1,25.3s2.1,1.5,2.3,2.4c1,4.3-1.4,9.3,4,12.7l-1.7-28-2.2,7.8ZM776.2,427.3v-21.9c0-.7,1.7-.9.1-3.4s-2.4-2.4-3.5-2.8v2.8s3.4,25.2,3.4,25.2ZM787.4,458.7l-1.2-46.5c-.4-3.4-3.1-6.2-6.7-6.2,4.9,16.6-2.9,39,7.8,52.7ZM798.6,469.3c-1.8-8.2,0-32.5,0-42.6s-3.2-4.7,1.1-6.2c-1.1,2.6,2.3,7.2,2.3,8.4v29.7c2.8.2,1.9.3,2.2-1.7,1.4-9.8,2.1-19.9,2.3-29.7h4.5c-.7,4.5-2,9.5-2.3,14-.6,10,.1,29.3,1.2,39.3s1.7,6.2,6.7,6.1c-2-19.1-2.3-38.3-2.5-57.5l-25.6-17.6c1.3,14.7.3,29.7,1.1,44.4.2,3.3.8,8.9,1.3,12.2s.4,4.2,2.1,4l-.6-56.1,1.7,5,1.1,54.5,1.7-2.3,3.9,1.2c1.1-2.4-2.1-4.4-2.2-5ZM243.3,439.6l3.2-3,10.3-16.1c-6,4.6-10.9,12-13.4,19.1ZM779.5,443l-2.2-21.3c1.8,6.8-4.2,16.9,2.2,21.3ZM832.2,491.2l-2.5-53.1-14.4-8.6,3.5,56.5,5.4,1.8c-.6-16.6-2.9-33.3-2.2-49.9s-.8-4.2,1.1-3.9l3.4,53.3c-.4,2,4.8,4.8,5.6,3.9ZM837.7,439.7l-5.5-1.3c1.9,7.5.8,50.6,3.6,53.6s3.7,1.4,5.3,1.4l-3.5-53.7ZM844.4,442l-5.5-1.3,4.7,50.9.9,1.4,3.4.5-3.5-51.5ZM855.8,494.6l-4.7-49.7c-.8-2.4-3.4-1.9-5.4-1.9l4.4,49.8,5.7,1.8ZM869.3,493.4l-2.4-44.2-14.4-5.2,5.6,50.5,5.5-1.8-3.3-44.2c2.2.5,2,2.2,2.2,3.9,2.1,13.3,1.5,27.6,3.4,41h3.4ZM872.6,492.3c2.7-.8,2.3-4,2.3-6.2l-2.3-34.8-3.4-2.8,3.4,43.7ZM879.3,450.9l-4.4-1.2c-.9,1.3,1.9,21.7,2.2,25.3s-2,12.6,2.8,14l-.6-38.1ZM883.9,485.6c2.4.3,4.1-1.9,4.5-4,.9-5-.1-20.3-1.1-25.8s-3.9-4-6.7-3.9l3.4,33.6ZM893.8,455.5l-4.3-1.3,1.1,25.8c7.2,1.7,4.1-23,3.2-24.5ZM907.4,457.6l-11.2-1.1,1.1,16.8c4.2-2.5,1.5-9.4,2.2-13.5l3.3,6.7,4.5-9ZM807.6,481.1v-22.4c-2.3.3-1.7,4.2-2.3,5.9s-2,.5-2.2,2.5c-.5,4-1.2,14.1,4.6,14.1Z"></path>
  <path d="M494.6,790.7c0-.2-2.6-3.3-3.4-3.4l-1.9,8.6.8,26.2,1.1-9c6,2.6-2.4,18,2.8,20.2,6.2-10.1,5.1-31.9.6-42.6,8,15.7,4,31.6,3.5,48.7l.9,1.3c6.2-1.6,7,8.9,10.1,12.9-4.8.5-5.5-8.2-7.8-9.5s-2.9,1-4-.5-1-4.9-1.7-6.8c-5.7-.7,1.1,6.7,0,7.8-7.8-3-13-13.9-15-21.5-3.5-13.2-1-30.3,6.7-41.3,4.6,1.2,5.5,5.6,7.2,8.9Z"></path>
  <path d="M450.8,686.4l-4.5-1.7,4.5,17.4-4.7-12.6-2-.2,7.9,27.5c-6.2-5.3-4.1-16.8-10.1-22.4,2.9,11.5,8.3,22.7,7.8,34.8l-3.3-3.4.6,5.6c-5.2-4.1-7.8-4.5-10.1-11.2-3.7-11.1-2.6-29.9,6.3-38.5,5-4.9,9.5-1,7.7,4.9Z"></path>
  <path d="M436.2,554.1l-1.1,2.2,4.5,2.3-10.1-1.1.9,2.1-2,2.4,4.5-1.7,4.5,6.2c-7.9-5.9-10.2-4.3-11.2,5.1s1.3,17.7,3.4,26.3l3.9-3.4c1,5.5-5.2,8.7-10.2,5.7l-.5,2.1h-1.6c-7.1-2.8-5.8-35.7-3.2-42.3s10.4-7.2,18.3-5.8ZM426.1,595.5c-3.5-5.7-1.6-12-2.5-18.2s-.5-3.4-1.9-3.1c-1,6.6-3.5,18.4,4.5,21.3Z"></path>
  <path d="M261.2,504.7c.3.4,7.1-7.3,6.7-1.1-13.9,3.3-7.4,28.4-3.4,38.1l-2.8-2.2-5-19.1c-.5,8.2-1,16.9,0,25.2s3,4.3,1.6,6.2c-3.3-2.8-2.9-7.7-4.6-11.1s-5.2-6.6-6.4-11.5c-3.8-15.7,2.4-29.5,17.2-35.7,1.6,5.3-3.5,6.7-3.3,11.2ZM253.4,534.9c-.8-10.4,2-20.4,4.5-30.3-6.8,5-7.3,15.1-6.7,23s.5,6.8,2.2,7.3Z"></path>
  <path d="M368.9,611.2c-.3,3,0,5.5,3.4,5.6v2.2s-3.3-1.1-3.3-1.1c-1,1.3,4.2,21.3,5.6,24.2s.6,2.6,2.3,2.8l-2.2-21.3,3.4,15.1v11.8c-3.7.9-4.5-3.6-7.9-4.4-2.9,3.8-2.1,4.1-1.2,8.9-4.6-3.7-6.2-10.2-4.5-15.7l-2.2,1.1c1.7-9.5-9.1-29.4,6.7-29.2Z"></path>
  <path d="M697.6,603.4l-3.4.6,3.4,3.9h-3.9c-3.9,11.9-4.5,24.8-5.2,37.4l-5.4,3c-.5-2.9-2-5.3-2.3-8.4s-1.2-20.5-.7-23.1c1-4.6,14.2-23.8,17.5-13.4Z"></path>
  <path d="M572,518.1c.3,4.4-3.9,5-6.1,7.9-7.6,10.1-12.8,28.1-8.4,40.3l3.1-.3.7-2,.6,3.4,3.3-1.1c.9,1.9-2.8,3.9-2.2,4.5s2.7-.9,2.2,1.1l-13.2-.7c-7.8-8.9-1.9-25.6,2.3-35.5s9.1-19.4,17.7-17.7Z"></path>
  <path d="M743.6,515.9c-6.1,1.5-5.8-2.3-9.5-5.6l-1.1,2.2c-2.3-.8-4.8-15.7-5-18.5-.3-4.1-.1-29.6,5-29.6,11.8,7.9,12.7,27.9,11.8,40.8-.3,3.9-3.1,6.6-1.1,10.6ZM736.9,468.8c-4.9-5.4-4.6,20.1-4.5,21.9.9,8.6,4.9,13.7,8.4,20.8,5.4-9.7,2.5-22.2.6-32.5l-2.2,4.5-2.3-14.6Z"></path>
  <path d="M598.9,778.4c1.2,4.3-5.2,2-5.5,2.3s-3.1,7-3.2,7.5c-1.8,7.4,2.9,17.2,2,25l-3.4-3.4c-2.9.3.7,6.5,1.7,6.7l5.1-3.9c0,3.5-2,7.4-6,6-.8-2.4-7-7.7-7.3-8.5-1.8-5.1.9-17.8-.2-23.9l2.2,2.2c.7-7.7,6.9-14.6,14.6-10.1Z"></path>
  <path d="M597.8,428.4c-6.8,13.5-7.6,29.2-2.2,43.2l-2.2,1.6c.4-3.2-3.9-1.1-5.6-4.2s-3.1-8.7-3.3-9.8c-.8-5,1.4-21.7,4.3-25.6s3.2-.4,4.6-1.3,1.5-4.5,4.5-3.9Z"></path>
  <path d="M483.3,441.8c-5.2-2.9-9.6,2.6-11.4,7.1-3,7.3-1.6,29.1,10.3,19.9,3.1,5-5.5,12.3-10.1,9.6s-1.2-4.9-3.3-5.1l-1.1,5.6-1.1-39.3,1.1,11.2c2.3-1.2,1.6-5.4,2.9-7.8,2.7-5.2,10.7-9,12.8-1.2Z"></path>
  <path d="M612.5,631.2c.4.4,2-.9,2.8-.8,5.1.6.8,4.6-.1,7.7-3.2,11.3-2.1,19-.5,30.3-2.8.3-4.5,0-6.1-2.3-4.3-6.3-3.6-30.6,2.2-35.9s1.2.3,1.8.9Z"></path>
  <path d="M430.6,790.7l-2.2.6,5.6,7.3c-15-2.7-18.3-18.4-22.4-30.9l2.7-1.7,6.2,12.3c-.5-7.4-2.5-15.1,0-22.4,1.6-.2,2,2.9,2.1,4,1.2,10.9-1.5,22.3,8,30.7Z"></path>
  <path d="M639.3,478.9c3.7,10.1,4.5,18.7,3.1,29.5l-5.3,10.9-.8-3.4-1.4-1.1c2.8.4,2.5-1.4,2.3-3.8-6-3.1-3.4-13.6-3.3-19.2s-1.5-4.2-1.3-5.5,2.2-1,2.8-1.9c1.2-1.9.2-6.1,4-5.6Z"></path>
  <path d="M582.1,618l-3.4-2.2c-2,5.7-1.2,11.1,0,16.8-1.6.2-2-2.9-2.1-4-.8-7.4,1-22.1,2.7-29.7s3.9-17.1,10.7-15.7c.6,3,1.4,7.6,2.3,10.4s2.1.5,2.3,2.5c.7,8.6-6.2,29.6-11.9,36.5l3.9-10.1h-4.5c6.4-1.6,8.4-13.8,8.9-19.7s1.2-14.8-2.8-14c-2,1.4-6.2,8.9-6.2,10.7v18.5Z"></path>
  <path d="M528.2,570.9c.7,3-2.9,2.9-3.8,4.5s-.2,5.8-2.8,7.4l2.2,2.1c-3,4.1-1.6,8.2-2.4,12.3s-1.9,2.9-2.2,4.6c-.6,3.6,3.2,10.2-1.1,9.5-3.4-8.4-6.1-18.1-4.3-27.2s8.2-17.1,14.3-13.1Z"></path>
  <path d="M310.6,545c-4.2.4-5.7,7.6-6.2,11.2-1.4,9.1-.5,19,2.8,27.6l9,5c-21.4,2.8-20.5-27.9-14.8-41.2s10.9-5,9.2-2.6Z"></path>
  <path d="M370.1,711.1c1.6.3,1.2-1.3,1.5-2.4,2.2-8.9-1.3-16.1-3.2-24.4s-1.5-3.7.6-3.4c3.2,6.2,8.9,35.1-.6,35.9-5,.4-12.3-13.6-13.5-17.9s-1.7-5.7.6-5.7l3.4,10.1c-1.5-8.2-2.4-17,1.1-24.7,1.6-.2,1.8,3.1,1.9,4.2,1.6,11,2.6,18.3,8.2,28.3ZM360,699.9c.1,3.7,3.4,15.6,8.4,14.6l.5-2.7-8.9-11.9Z"></path>
  <path d="M548.4,720.1l-2.2-1.1v13.5s-3.4-22.4-3.4-22.4l-2.2,2.2c-.9-5,2.5-31.6,10.6-29.2s-3,10.4-3.7,11.9c-4,7.7,1.6,17,1,25.1Z"></path>
  <path d="M641.5,707.7l-1.7,1.1h2.8s-1,2.8-1,2.8c2.9,3.3,5.8,16.2,5.5,21.2-.4,7.4-8.7,17-12.7,8.2-2.5-5.4-1.3-34.3,4.2-35.6l2.8,2.2ZM642.7,734.7c2-7.2,1.1-18.2-4.5-23.6-3.3,9.8-1.6,18.2,0,28.1l-2.2.5,3.3,2.3,2.8-.7c1.8-.8,5.3-10,.7-6.7Z"></path>
  <path d="M466.5,565.2l.6,3.4.7-2c3.5-1.3,5.2.7,6.5,3.7l-2.2.5c.5,4.5-1.2,11,1.1,15s5.6,2.3,0,4.7l2.2,5.1c-2,0-4.3-.2-5.7-1.9-3.4-4.2-6.3-21.2-5.5-26.7s-.4-1.8,2.2-1.7Z"></path>
  <path d="M407.1,440.7c-3.5,4.3-1.5,9.2-2.3,13.9-1.4,8.2-5.5,15.2-2.2,24.2l-2.2-.6c.6,5.6,2.9,10.7,9,7.3v2.2c-7,3-9.9-.9-10.9-7.6-1.5-9.8-.6-28.6,5.1-36.9,1-1.4,1.2-3.1,3.6-2.6Z"></path>
  <path d="M750.7,551.5c.4.6,2.3-.2,1.9.8l-4.5,2.3c-6-3.5-1.8-24.4,0-30.3s1.1-2.8,2.7-4c4.6,4.3,1,9.1.6,14s-1.3,16.4-.8,17.1Z"></path>
  <path d="M714.4,460.9c-9.8-.3-13-13.3-13.5-21.3l-2.2,3.4c0-6.3-.6-13.9,3.9-19l2.5,19.9c1.3,7,5.8,11.3,9.3,17Z"></path>
  <path d="M348.7,518.1c2.7-8.2,4.6-16,2.9-24.7s-4.5-12.7-7.9-8.9c-5.2,5.9-2.8,23.3.6,30.3,3,.7,2.2-1.3,3-3.1,2.2-4.6,1.7,5-.8,4.8-9.6,4.7-9.3-22.4-8.9-27s1-4.1,1.1-6.2l1.1,2.2h2.2c3.9-8.6,9.6,1.3,10.7,6.7,1.5,7.3,1.5,20.3-4,25.9Z"></path>
  <path d="M310.6,550.1c0-.5,1.1-3.2,2.2-2.8-1.6,12.2-.7,24.4,2.3,36.4-2,.9-4.5-8.4-4.5-9,0-7.3-.9-17.9,0-24.7Z"></path>
  <path d="M569.7,208.5l-4.5-5.6c-.5,13.7,4.8,26.9,6.7,40.4-3.2.5-1.9-.7-2.4-2.6-1.5-5.2-6.4-24-6.7-28.3s1.9-7.7,1.2-11.8c1.6-1.9,6.2,6.1,5.6,7.8Z"></path>
  <path d="M558.5,196.2c-3,4.8.4,8.6,1,13,1.4,9.8,2.1,19.8,3.5,29.6-1.6.3-1.6-2-1.9-3.1-2.7-10.8-2.4-22.8-5.9-33.5,0-2.1-.1-6.8,3.3-6Z"></path>
  <path d="M308.9,283.7c2.5,1.6,1.1,2.5,0,4.4-1.9,3-20.7,24.6-22.4,24.7-3.6.2,2.2-6.5,2.8-7.2,6-7.2,13.5-14.6,19.6-21.9Z"></path>
  <path d="M732.4,344.2c-2.1.2-.9-2.3-.6-3.4,2.5-7.6,6.8-17.3,11.8-23.5l-11.2,26.9Z"></path>
</svg>