<?xml version="1.0" encoding="UTF-8"?>
<svg id="Warstwa_1" xmlns="http://www.w3.org/2000/svg" version="1.1" viewBox="0 0 1080 1080">
  
  <path d="M540.9,790.6c-15.7-14.5-52.1-34.5-73.3-36.3-23.2-2-46.1,5.6-69.1,4-76.1-5.2-85.6-52.2-121-106.3-22.3-34.1-46.1-55-57.1-97.1-5.8-22.2-2.8-38.9-4.8-60.3-1.9-20.2-10.3-42.4-11.8-64-1.4-19.6,2.2-39.3,1.4-58.5-1.8-39-23.8-74.3-29-113.2s-.1-14.2,1.6-13.6c6.1,3.6,10.9,7.6,17.6,10.3,48.5,19.5,83.1,7.9,131.2,12.3,45.5,4.2,65.3,45.1,91.1,76.4,48.6,59,94.8,86.8,101,171.5.6,8.2-.6,17.1,0,25.3,1.7,22.4,15.3,42,17.2,65.2,4.1,51-31.6,77-6.7,135.6,4.1,9.7,12,18.2,16.4,27.4,2.5,5.2,3.2,11.4,6.1,16.5,5.9,10,17.9,20.6,25.5,29.6-6-16.1-10.8-32.9-13.1-50-6.1-45.6-2.5-87.1,9.2-131.3,8.6-32.5,25.4-70.9,31.4-102.8,6.7-35.3,2.3-75.1,11.4-110.9,2.6-10.4,7.8-20.5,10.6-30.6,11.4-41.3-4.5-74.5-9.5-113.5-3.8-30.2-3.6-60.5-19.4-88.2s-21.1-19.3-32.6-29.9c-3.7-3.3-17.5-17.2-19.2-20.6s-2.1-5.3,1.3-5.3c8.1,0,9.4,5.3,14.6,9.3,8.9,6.8,19.7,12.6,27.9,20,21,18.9,34,25.1,56.7,40.4,29.1,19.6,53.8,37,84.5,55.1,53.2,31.3,80.2,53.7,115,105.6s22.7,76,19.7,134.5c-2.3,44.9,7.1,96-32.6,128.2-13.4,10.8-28.9,20.9-41.9,32.6-15.9,14.4-27.2,29.9-41.2,45.2-4.4,4.8-22.5,18.4-23.6,24.1s1.4,3.3.4,5.8-6.1,4.9-8,9.3c-2.9,6.7-2.3,14.8-3.9,21.3-2.8,11.3-11.9,30.5-23,35.5-25.9,11.5-96.8-3.5-89,44.5,2.5,15.4,28.9,40.1,40.9,50.8,5.7,5.2,35,26.5,36.6,29.9s-5.1,16.3-8,19.9c-4.8,6.2-27.5,23.1-34.6,15.9s-7.9-21.7-9.7-26.2c-21.6-53.9-43.7-103.3-87.1-143.5ZM709.8,607.7c20-32.5,37.6-66.6,44.8-104.7,8.6-45-4.7-91.6-23-132.5-22-49-46.6-97.1-80-139.3l-39.8-37.9c7.2,19,12,38.9,14.6,59.2,1,7.7.4,17.3,1.5,25.1,4.4,31.4,15.6,59.7,13.2,93.2-1.4,19.5-10.9,35.6-15.3,53.8-8.8,36-3.9,77.6-11.9,113-13.8,60.7-45.9,120.9-43.2,185.4.9,21.8,4.4,61.8,13.1,81.2.7,1.6-.6,2.4,2.8,1.9,1.6-12.1.9-23.7,3.5-35.7,3.3-15.4,11-29.2,16.8-43.7,8.8-9.2,18.1-17.7,27.5-26.3s12.6-9.2,16-13.3,3.8-7.9,5.7-9.6c13.4-11.5,35.1-36.6,44-52.4,3.4-6.1,5.2-8.5,4-15.9l5.8-1.5ZM856.3,487.1c2.2-18.7,4.7-37.6,4-56.5-.8-19.9-4.4-31.2-13.9-48.6-17.9-32.6-68.6-91.5-102.6-106.1-16.2-7-32.8-11.8-46.5-23.9l-23.1-12.2c2.7,4,5.5,8.2,8.6,12,5.9,7,6.3,6.9,11.5,15.1,1.4,2.2,10.9,8.3-.2,6.1-2.2,3,19.9,43.4,22.8,49.6,16.3,34.9,35.1,71.4,42.7,108.8,1.3,6.4,5.7,17.5,6.2,21.8s0,20.2-.1,23.7c-3.7,72.5-57.3,164-109.6,212.1-1.5,1.4-2.3,4-3.9,5.4-3.1,2.7-10.6,5.1-12.7,8.5s-3.5,17.2-5.9,22-1.7,1.7-2,1.3l.7-13.3c-4.4,2.3-3.6,7.8-5.4,10.6s-7.5,4.4-9.2,9.4c-1.1,3.2-.4,6.2-1.3,9.3s-4.4,4.8-4.5,8.5c-.3,7.3,5.1,17.5,6.3,25.5.7,5.1-1.6,11.4,2.2,15.1,6.7,1.4-.6-13.3,1.3-15.9,4.3,3.9,8.2,5,7.3,12,4.3.7,5.4-1.5,5.3-5.3l1.8.2c7.9,2,3.9,6.7,10.1,10.4l-2.7-8.6,2.7-.7,5.3,12-2.7-19.3,3.3-.7,8.6,17.3-6.6-25.2c3.6-4,13.8,22.4,16.6,22.6s1.3-3.8,1.1-5c-1-6.9-5.8-11.9-5.7-18.9,3.4-.8,2.3,1.1,3.4,2.5,3.4,4.1,4.8,8.2,7.7,12.3s0,3.3,3.4,2.5l-4-14.6,9.3,8-2.7-10.6c5.1,2.5,6.2-4.5,8.6-4s1.7,5.8.5,7.7c-10.7,0-2.4,3.2-2.4,3.7.6,3.7-3,4.6,1.9,8.5,8.9-4.9,7.2-15,8.7-23.9l2.6,1.3-1.3-5.3h3.8c0-.1,6.4-26.3,6.4-26.3,9.3-14.4,25-24.1,37-36.2,9.1-9.1,12.7-20.1,21.3-28,5.1-4.7,2.7-2.7,6.7-7.9,10.4-13.6,17.6-14.8,29.8-23.4,6-4.2,17.7-14.4,23.3-19.2,27.9-23.4,26.1-81.6,24.6-115.1-.2-4.2-2.1-8.3-1.4-12.6l2.6,1.3ZM199.7,281c-1-4.8-6.1-8.2-8.3-12.4s.3-3.9-.9-5.6-7.1-5-9.4-7.3l1.2,6.1,17.3,19.2ZM208.5,267l-12.8-2.6c13.3,13.7,21.2,28.8,26.7,47.1l2.5-1.3c2.9,11.3,7.5,24,9,35.5s-1.2,5.8-.7,9.9,4.2,10.3,5,15.6c2.4.3,1.3-3,1-4.3-1-4.6-3.7-9.3-3.7-14.3,6.4,3.8,5.3,12,7.6,18.3,6.5,17.8,17.6,33.7,26.9,50.2.2,4-1.5,1-2.4-.2-9.1-12-16.8-27.9-22.8-41.7-2.4-.3-1.1,2.8-.7,4.1,2.7,9.3,8.8,20.4,14,28.5,10.6,16.4,22.4,23.3,35.8,36.1,28.1,26.8,47.7,56.3,73.9,84.2,8.3,8.8,17.5,16,26.6,23.9,3.1-3.1,3.6-10.5,5.3-13.4s2.7.6,4.9-2.9c13.9-21.7,19.4-65.3,15.3-90.4s-26.9-75.5-26.3-101.3v-2s2,1.3,2,1.3c8,42.1,32.5,89.2,29.9,132.2-1.5,24.2-11.3,50.3-22.3,71.5l9,24.2,45.2,47.2c.3-5-.4-10.1.2-15.1,3.4-29.4,28.6-38.5,35.1-65.9,5.8-24.5,3-48.5-5.1-72.1-5-14.5-15.5-26.3-20.2-42.2s-1.7-14-4.6-19.3c-5.3-9.7-29.4-30.8-38.5-41.2-18.7-21.3-47.5-68.5-69.6-80.6-21.8-12-44.1-10.4-68-10.5s-34.8,2.7-46.6,1.5c-6.5-.7-25.8-8.1-31.7-10.2ZM207.3,292c-3.9-3.4-9.1-7.4-12.9-11.6s-6.6-12.5-12-12c8.8,36.2,28.3,71.6,30.6,108.9,1,16.4-1.2,33.9.1,50.4s6.7,34.2,10.1,51,1.2,24.3,7.8,36.1c21.5,38.5,74.4,58.7,116.8,61.3,2,.1,4-.1,6,0l-5.3-2.7c-1.6-1.4,16.7-9.8,18.7-10,2.3.4,11.5,8.5,8.6,11.4l-11.3-8c-.8,17.4,20,7.8,30.6,9.3-4.9-4.8-9.3-11.1-13.9-16-6.5-6.9-14.4-13.3-21.2-20s-3.2-7.4-5.7-11.5c-3.7-6-13-13.9-18.2-20.4s-23.4-36.9-31.4-40.4-3.6.8-3.8.6-1.2-4-2.8-5.9c-17.5-20.9-34.5-32.1-49.7-57.9-7.3-12.3-15.5-28.5-18.6-41.2s-19.6-68.9-22.4-71.4ZM482.8,445.8c-4.1-7-5.6-17.4-11.9-22.6-.8,3.1,7.7,26.6,11.9,22.6ZM497.4,476.4l-7.9-13.3c.9,4.6,2,15.4,3.9,19.1s3,.4,4.1,1.7c2.1,2.4,3.2,10.4,6.5,12.4l-5.3-22.6-1.3,2.7ZM506.7,524.3l-2-17.3-8.6-19.9c2.3,12.3,2.5,27,10.6,37.2ZM226.3,513.6v20.6c0,31.1,32.5,80.5,55.2,100.3s6.8,14.9,12,21.2,8.2,5.9,9.2,8.1.3,5.5,1.3,8c1.5,3.8,21.3,29.4,24,30.5l2-2.6c6.8,15.8,21.1,25.8,35.3,34.5l2.6-2.6c3.7,4.9,8.1,6.6,13.3,9.3v-5.3c4.4,4.9,12.6,3.9,17,5.5s3.9,7.9,11.5,5.1l-6.6,1.3c-.4,1.7,2.6,2.2,3.7,2.3,7.7,1,18.5-2.6,26.9-1l-2.7-3.3c5-2.8,9.4,2.5,14,3.2,7.5,1.2,17-.5,25,.2,17.1,1.6,35.4,9.8,51.3,15.8-20.5-27.1-31.4-59.8-42.8-91.4-5,0-7-3.6-11.6-5-19.2-5.9-50.1-1.3-71.2-1.9s-85.9-4.6-106.3-25.2c-1.1-1.1-9.5-11-4-9.3s7.4,6.8,10.9,9.1c12.5,8.3,35.5,15.5,50.5,17.3,10.9,1.3,73.6,3.5,80,.5s1.8-6.3,11.5-4.4l.9,3.9,5.2.2c-7.2-10.6-7.4-31.1-12.9-40.8s-3.5-2.3-4.4-3.6c-1.9-3-2.7-6.7-5.3-9.4l4-2.6-11.3-11.3-4,2.6c-3.9-8.4-10-5.6-18-7.2-5-1-9.4-5.2-14.5-2.7,6,5.2,17.4,5,24.2,7.7s4,4.3,6.4,5.6,4.6.4,5.1.9,2.3,10.1,2.2,11.8c-4.5-6.1-10.8-13.7-18-16.6-37.5-15.3-79.9-9.4-113.8-28.4-6.2-3.5-12.8-6.4-18.4-10.8l-2,.6,14.6,14.6c-.2,1.3-2.1.7-3,.4-5.7-2-32.2-28.9-36.9-34.9l-12-20.6ZM525.4,630.6c-1.3-6.3,1.5-13.5,1.4-19.2-.2-22.3-17.2-50.5-22-72.5s1.7-11.5-4.6-14.7c-1.1,6.5-.6,14.3-1.4,20.5s-3.4,5.9-2.7,9.1,5.6,3.7,7.3,6.3c4.2,6.5,13,25.6,14.8,33.1s1.2,8.1,1.9,12c-6.3-7.9-8.5-19.7-12.7-29.2-2.7-6.3-6.5-12.1-8.8-18.5h-5.1c6.7,21.9,23,40.5,27.2,63.7l4.6,9.3ZM522.3,642.2c4.4-9.4-20-61.5-26.4-71.8s-4.2-7.8-6.4-6.2c-1.8,4.4-1.3,6.8,1.3,10.6h-5.3c-2.8,2.8,7,15.3,8,9.7s-1.3-3.6,2.6-3c7.9,18.3,19.2,35.4,21.3,55.8-9-7.3-8.4-25.1-12.7-33.1s-13.2-15.5-19.8-21.4-3.9-2.2-5.3-4c-3.6,2.3,0,3.9.7,6.6-2.1,1.4-6.7-.5-7.7.2s-9,14.6-4.2,15.8c-11,2.2,6.9,16-2.7,20.6,4,.6,11.8,29.6,14.6,27.3l1.3-2.7,8,19.9c2.7,0,1.1-5.3.7-6.7-2-6.3-7.9-14-10-20.6s-.4-2.2.6-2c3.8,4.8,11.4,17.9,12.4,23.6s-.9,4.6-.6,6.1c3.5,17.3,13.1,35.6,18.2,52.7,2.4.3,1.2-2.9,1-4.3-.5-2.9-1.8-5.5-2.2-8.5-.8-6.1,1.8-13.2-3.5-17.8l-2,4-8-37.2,5.6,9.7c2.6,7.5,3.5,17.5,9,23.5,1.1-7.6,1.8-12.6-1.3-19.9l4,4c2-5.4,1.6-12.6,2.7-17.7s5.5-11.8,6.2-13.2ZM435.2,614.3c-1.3-1.2-2.7-8.8-6.9-8.3l6.7,16.6,2.6-5.3,8,17.3c-1.1-5.6-2.7-16.7-7.3-20s-2.9,0-3.1-.2ZM456.2,654.5c-2.5-10.6-2.3-23.9-10.6-31.9,1.7,9.8,5.3,19.1,7.9,28.6s-1.4,3.9,2.7,3.2ZM474.9,665.1l-6.1-11.8-13.8-18.7c.4,8.1,8.4,16.2,10.6,23.3s.4,2.2-.6,2l-4.6-4c-2.5,4.7,12.6,10.7,14.6,9.3ZM508.1,725l-4.3-15-11.6-27.6,9.6,30.9,6.3,11.6ZM521.4,750.2c-2.2-5.6-3.7-11.7-6-17.3s-2.5-6.9-4.6-8c1.8,8.3,4.6,19.1,10.6,25.2ZM630.4,912.4l2-14.7c-1.3-.9-8.4-9.7-10-7.9-3.2,3.7,5.1,5,5.2,6-1.8,4.9-1.9,12.9,2.7,16.6ZM646.3,909.7c-3.5-4.6-2.5,10.1-2.7,11.3-1.1,10.7-4.8,20.9,0,31.2,3.1,3.1,3.6-7.8,4-8.7l-1.3-2.6-.7,3.3c-1.1-.9-1.9-1.6-1.9-3.2-.1-5.3,2.2-14.4,2.5-20.1s0-7.5,0-11.3ZM656.9,946.9c2-9.4,9.3-27.3-4-30.6l-2.7,33.2c1.6,2.1,2.4,0,2.7-2,1.1-9.3.5-19.4,2.7-28.6l1.4,12.7c.2,3.6-1.2,7-1.4,10.5s-.8,5,1.4,4.7Z"></path>
  <path d="M524.8,554.4l-1.3-2.7-1.3,8c-1.4-8.5-5.7-17.6.7-25.2,1.2,2.9.4,6.1,1.2,9.4s5.9,8.8.8,10.6Z"></path>
  <path d="M533.9,596.9c-1.9-.2-2.3-5.9-2.5-7.5-.8-7.2-.7-15-1.7-22.3-3.3-23.9-9.5-47.2-17.1-69.9l5.4,9.9c8.8,29.2,14.8,59.2,15.9,89.8Z"></path>
  <path d="M530.5,545.7c-4.6-3.4-6.7-11.6-10.6-15.3-1.6-1.5-1.6-.2-1.4,1.4,1.9,9.8,11.9,26,15.1,36.8s2.5,7.6-.4,7.7c-2.2-5.9-4.1-12.1-6.9-17.7s-9.2-15.1-9.8-18.1.9-4.2.4-5.7c-1.7-5.6-6-10.7-5-16.9,5.6,5,14,15.2,17.3,21.9s1.8,3.5,1.3,6Z"></path>
</svg>