<?xml version="1.0" encoding="UTF-8"?>
<svg id="Warstwa_1" xmlns="http://www.w3.org/2000/svg" version="1.1" viewBox="0 0 1080 1080">
  
  <defs>
    
  </defs>
  <path class="st0" d="M278.4,508.8c2-18.3-15-32.2-32.5-31-36.2,2.5-60.3,50.5-56.3,83.2,4.3,34.1,47.4,66.3,78,76,37.9,12.1,107.6,11.3,144.5-4.1,36.4-15.2,90.7-61.3,127.8-61.3s98.3,54.2,143.5,66.6,146.4,9.5,189.5-41.5c28.6-33.8,21.3-80.7-12-108-16.2-13.3-44.6-16.9-56,4.1-1.2,2.2-6.2,17.4-1.6,15.5s8.1-9.5,17-4c21.5,13.5,17.4,45.2-7,52.9-30.2,9.6-50.2-27.4-66.5-45.5-28.9-32.3-114-108.3-157.5-65.5-13.1,12.9-22.7,29.7-42,36s-35.3-11.9-46-22.9-10.3-14.5-19.6-19.4c-46.5-23.9-113.5,34.3-143.4,66.3-18.3,19.7-42.7,65.4-76,49.1-18-8.8-21.4-28.9-9.4-44.5,8.3-10.8,15.1-10.2,25.4-2.1Z"></path>
  <path d="M278.4,508.8c-10.3-8.1-17.1-8.7-25.4,2.1-12,15.6-8.6,35.6,9.4,44.5,33.3,16.4,57.7-29.4,76-49.1,29.9-32,96.9-90.2,143.4-66.3,9.3,4.8,12.9,12.3,19.6,19.4,10.7,11.1,29.7,28.3,46,22.9s29-23.1,42-36c43.5-42.8,128.6,33.2,157.5,65.5,16.2,18.1,36.3,55.1,66.5,45.5,24.4-7.7,28.4-39.5,7-52.9-8.9-5.6-11.7,1.7-17,4s.4-13.2,1.6-15.5c11.4-21,39.8-17.4,56-4.1,33.3,27.4,40.6,74.2,12,108-43.1,51-128.7,58.2-189.5,41.5s-100.8-66.6-143.5-66.6-91.4,46.1-127.8,61.3c-36.9,15.4-106.6,16.2-144.5,4.1-30.6-9.8-73.7-42-78-76-4.1-32.7,20.1-80.8,56.3-83.2,17.5-1.2,34.5,12.7,32.5,31Z"></path>
</svg>