<?xml version="1.0" encoding="UTF-8"?>
<svg id="Warstwa_1" xmlns="http://www.w3.org/2000/svg" version="1.1" viewBox="0 0 1080 1080">
  
  <path d="M437.3,741c-.5-.1-1.4,0-2,0,1.3,8.5,5,15.4,9.9,22.3l-7.4-4.5c-1.3.5-.2,1.9.3,2.7,3.9,7,15,16.4,23,17.2,0-5.3.9-12-3.5-15.9l-1.5,2-1-4.9,7.4,5.9c1.6-1.3.4-4.8,3.5-4l4,7.9c-4-14.6-7.7-29.4-7.9-44.7,2.2.2,1.4,2.9,2.1,3.8s1.8-.8,2.4,0c1,1.8,1,18.5,1.5,22.4,1.5,11.7,6.7,28,12.4,38.3s1.1,2.7,2.5,2.9c.8-4.7-4.6-9.5-5.4-12.9s1.2-1.8.9-3.7c-1.3-7.2-3.9-14-5.4-21.1l-3,2c-1.7-3.9,2-5.3,2-5.6.2-1.3-1-3.2-1-4.8-.1-4.1,0-8.3,0-12.4,3.5,2.3,1.6,8.8,2.2,13.2s3.6,7.7,3.6,8.1c0,1-1.2,2.2-.8,3.9,2.2,10.1,7.5,35,13,42.7,2,2.8,5.9,5.5,8.8,2.1-3.2-6-7.4-12.4-7.9-19.4l7.5,14.8,4.4,4.1c-.9-2.2-1.3-5-2.1-7.2-1.2-3.2-.5-1.5-1.2-4.9s-1.6-9.2-2.7-13.7c.7-.7,4.4,2.3,5.2,3s.8,3.5,2.7,1.5l-4-11.4-11.8-2.1,6-3.6-2.1-18.2,3.8,11.6c-.2,2.6-1.2,5.1.4,7.6s3.8,1.7,4.9,3,.6,4,1.8,6.1,5.8,4,7.5,6.4c1.7-3.2,4.7-4.8,1.5-7.9,6.1,3,13.8-19.9,16.9-16.9l-10.9,17.9,5-2-1,3c4.6.9,4.1-4.8,7.4-6.9,3.3,2.3-3.4,4.8-3.2,7.4l6.2,8.4c2.8.7,11.1-17.9,14.9-19.8l-3,7.9c4.5-3.6,6.1-12.1,10.9-15s2.8.3,3.9,0c2.1-.7.2-4.1,5.6-1.9l-5.4,5-18.4,28.2-2-2.5-2.5,2c-.8.2-.6-.9-.5-1.5.5-1.7,8.9-9.5,10.9-12,3.3-4.1,7.3-9.3,9-14.4-5,5.2-8.7,11.4-13.4,16.9s-10.4,6.4-7.4,15c1.5,4.2,3.9,4.6,6.4,6.7s.6,3.8,3.4,3l1-2c0,1.8.7,3.3,1.7,4.7,1.5,2.2,8.4,5.6,3.3,6.7,1.1,2.6,3.7,1.5,3.8,1.7.4.5.2,1.9.7,2.7s4.7,6,.9,4.1-3.4-6.1-5.5-4,2,5.5,3,6.5c1.7,1.6.2-2.1,2-1.5-.6,3.3,1.5,5.9,4.5,6.9s-1.3-4.1,1.5-3.9c-.4,3.6,4.9,5.6,5.5,6.9s-2.4,4.5,1.4,4l-2,2.4c.5,1.3.7,3.5,1.5,4.6,1.9,2.7,2-3.6,4.5-2,1.7,2-7.5,11.4,4,9.9l1-7.9.2,8.8c6.3,0,5,6.1,9.8,7.1l-2,1,1.5,4.9-4.5-8.9-2,4-3-3v12.8c.1,0,4.9,1.1,4.9,1.1l-2-2c3.8,0,7.1,2,10.8-.1l-.4-7.8,6.4,4c1,2.8-2.4,1.8-2.9,3.6-1.6,5.8,4.5,8,8.9,9.3l-.5-11.9c3.3,6.4,1.2,14.5,11.4,12.9l-3-10.4,3-.5c-1.1,5.3,4.3,5.2,1.9,9.3,3.2.9.7,2.1,1.5,3.5s3,1,2.5,3l2-3,2.9,2c2.7-4.1,1.6-10.8-4-8.9v-6.9c1.1-1,5.6,2.8,5.7,3.1.3.9-2.2,4.5,2.2,5.8l2.2-11.8,7.8-2.1c-1,2.8-2.4,5.6-2.9,8.5s-.9,6.8.9,7.4c1.7-5.2,11.7-18,9.9-23.2s-3.1-.9-2.9-2.6h4s2.5-10.9,2.5-10.9l1.5,5.9,14.8,1c.2,1.7-2.3.9-3.5,1-3.1.1-6.2-.3-9.3.1-2,1.7-.1,6.4-.3,6.7-1.5,2.2-3.1,1.8-4.5,6.9-.4,1.5-1.7,16.2-3.3,14.1v-10.9c-4.7,1.9-3.8,9.8-5,12.1s-2.3,1.3-3,2.2c-2.7,3.5-3.1,9.1-3,13.5l5-1c.3-.4-3.7-5.8.4-9,1-.8,3.6-2,3.5,0l-4,4c5.8-1.5,7.9,4.9,12.9,5,.3-3.6-.8-6.8-1-10.4s-.7-6.2,1-6.5l1.1,18.7c1.5,1.4,4.3,0,5.3.3s1.2,2.5,2.3,2.8,15.5-.4,16.2-1c-3.1-2.9-.7-5.1-.9-8.5s-1.1-2-1.6-4.4c-1.3-7.1-3-13.8-3.5-20.8-1.6-.1-2.3-.3-3.4,1-3.2,3.9-3.9,14.1-8,17.8-.6-6.4,6.7-13.2,7-19.3s-7.6,3.2-9.5,1.5.9-4,2.8-4.1l-.8-1.8c1.3,0,2.7.2,4-.5s9.6-18.5,8.9-19.3c-7.9,1-16.5-1.9-23.8,2,.6-4.3.3-4.7,5-6l.5,3.1,18.4-.6.9-4.5c-2.5-.3-4.2,1.4-6.5,1.9s-3.7.7-3.4-.9l9.5-2.9,1.4-7,1,5.9,5.9-1c-.4,2.2-4.2,1.2-5.4,3s-.5,3.5-1.5,4.9l6,1c-8.7-2.1-10.8,13.5-8.8,19.2s1.7,1.6,2.8,1.6l-2.1,1.6c.2,2.1.6,4.5,3.1,4.4,0,1.8-3.1.1-2,3.5,1.5,4.5,3.2-1.9,3.4-2.2.4-.7,3.4-.7-.4-4.7,3.3-2.2,4.8,5.9,5.2,6.2.8.7,3.8.6,4.7,2.7l-2.5,1.5c-.7,0-1.1-3.9-3.5-3-.2,3.6-3.1,4.1-3,8.5s4.3,12,7.6,15.4c5.9-1.1,7.2-4.4,6.3-10l1.5,5c3.3-2.3,7.2-5.4,5-9.9s-9.2-1.7-7.4-7.9c2.1,1.8,7.8,5.3,9.3,6.9s-.2,3.5,2.1,3c2.6-1.7,2.8-4,2.5-6.9l4,1c1.9-6.1,3-11.7,4-17.9l1.5,4c5.7-.8,5.4-3,5.5-8,4-.8.2,3.8,1,6,2.1-1.2,3.2-5,5.5-5.9,3.5-1.5-.6,4.2-1.5,4.9,10.6,1,5.7-12.7,11.9-16.9.5,2.3-3.1,11.9-2.7,12.7s2.3,1,2.2,2.2l4.9-3,2.5,3-11.9,3,.5,2,4.5-.5c-1.5,2.8-5.2,3.1-6.8,5.1s-4,8.8-5.9,12-8.6,12.1-9.1,13.7c-1,3.5,3.2-.2,3.6-.3,4.8-1,6.9,10.9,10.7,9.8s5.1-6.5,4.5-7l-8.7-1.5c1.3-4,.9-11,3.3-14.4s1.8-1.9,2.4-.6l-3,11.4c7.2-3.7,12.2-3.2,11.9-12.9,2.6-.5,1.5.6,2.5,2,5.3-1.9,6.4-6.5,8.5-11.4s0-3.4.5-4.5c1-2.4,5-5.1,4.3-8.9l1.5,2,8.9-6.9c2,1.9-1.8,2.5-2.5,3.7s-.6,3.8-1.9,4.8-3.1-1.3-6.8,4.1l-9.1,20.2,10.7-3.2c.9-7.1,2.6-14.2,7.6-19.7,1.6,5.3-6,9.1-3,14.9l9.9-14.9c2,4.1-3.1,7.4-2,10.9,4.6-5.8,13.1-8.9,15-16.8,3.2-13.3,6-27.8,9.6-40.9s.9-5.2,1.7-7.8c1.7-.3,1.1,2.4,1,3.5-.5,9.3-9.3,44.5-13.2,52.4-.5,1.1-.7,2.5-.8,3.7l-1.5-2-8.4,9.9c5.1,1,6.4-3.4,8.7-5s5.3-2.6,7.2-4.4c5.5-5.1,6.8-15.2,13.8-18.4v3.5c6.1-9.1,13.6-16.9,20.4-25.3l-6.3,14.7,2.3,2.1c7-5.2,13.4-11.2,18.2-18.6,3.5-5.3,12.3-27.4,15.6-29.1s1.7-.2,1.5.5c-1.1,1.9-3.1,4.1-4,6s3.3-.7,2,2-5.6,4.9-7,7.9,0,3.1-1,4.9c-3,5.9-8.8,11.5-9.8,18.1s.7.7,1.5.4,3.1-1.1,3.2-1.2c.4-.4,2.7-9.2,3.2-10.7,4.2,1.7-.3,4.3,0,6.9l4.5-5c1.6,1.6-7.3,11.2-6.5,11.9,3.5.7,4.7-2.9,6.1-5.3,6-10,12.6-31.5,14.5-43.1.8-5,.2-10.2,1.3-15.1,1.4-.2,1.9,2.8,1.9,3.6,0,4.4-3.6,12.4,0,15.3.5-9.6,5.4-18.5,7.6-27.8.5-2.3.2-5,.6-7.2l1.8-9.7,2,3c.1-4.7,2.4-10.1,2.9-14.5s-1-7.8-1-11.8,2.1-9.6,1.1-14.4c-2.6,1.1-1.4,6.4-2,8.2s-1.8.9-2.4,1.8c-.8,1.2.1,3.2-1.6,2.9l2.1-16.3,2.8-.6-2-7.9-2,3-1.1-14.3-3.8-19.5v15.9l-2-12.4-1-19.3,3,1-1-6.9,2.5,2c.8.1.6-.9.5-1.5-4.5-28.1-21.7-89.7-43.2-108.7-1.5-1.4-9.1-6.9-10.4-6l1.5,4.9c-3.8-2.9-5.4-8.1-8.4-11.4s-7.3-5.4-9.9-7.9c-24.2-23.7-41.8-50.7-71.8-69.2-10.3-6.3-23.4-10.1-32.4-18.2s-16.8-18.1-17.4-19.4c-1.1-2.6,1.7-3.8-2.4-8.4-9.2-10.3-30.4-13-43.6-18.9-11.8-5.2-21.8-13.7-34.7-16.4l.9-6.9c6,1.7,11.5,4.9,17.3,7,24.5,8.7,38.7,9,59.6,26.8s15.8,25.7,26.3,34.2c9.8,8,24.6,11.7,35.2,19.4s24.4,19.5,32.8,27.7c9.2,9.1,16,20.5,24.8,29.8s12.7,9.9,17.4,15.3,4.2,8.4,9.4,10.5c1.4-3.4-5.9-7.4-7.2-9.1s.6-2-.8-3.7c-4.1-5.1-8.8-9.9-13.4-14.5-.2-.7,1-.7,1.5-.5,5.8,2.6,14.3,17.9,21,21.2,2.5,6.3,9.1,8.8,13.3,13.3s19.6,26.5,20.6,28.8c2.2,4.9,1.9,10.4,3.5,15.3,6.7,21.1,18.4,44.7,20.4,66.9.5,5.5-.3,11.3.1,16.7,2,24.2,8.9,44.3,7,70.5-.8,11.2-2.1,16.6-2,28.7.2,17-.5,17.1-7.2,31.6s-9.3,20.3-16.5,32.1c-4.6,7.5-10.7,28.2-17.1,32.6-3.6,2.5-9.3,4.6-13.4,7.5s-10.4,8.8-13.9,12.9l-2.9-2c-8.2,7.3-15.9,17.3-28.3,14.9l1,2c-4.7-1.3-7.5,1.5-10.9,2.5s-3.1,0-5.2.7c-10.4,3.7-7.3,6.6-12.2,13.7-2.9,4.2-9.8,10.2-14.9,10.9-9.1,1.4-24.4,1.5-33.1-1.5s-9.9-6-12.3-5.4-.5,1.8-1.3,2c-2,.5-11.9-1.9-13.8-3.9l-.5,5-2.6-5c-5.2-1.7-14.1,3.9-17.7,3.9s-11.7-1.8-13.7-2.1c-5.9-1-13.5-6.8-19.4-8.4-9.2-2.6-14.4-.2-23.3-4.5-12.7-6.2-27-7.2-33.5-21.1l2-1-7.9-6,8.9,3.5v-14.4c0-.5-2.4-3-2-4.5l-1.5,2-4.9-7.9c-4.9.2-4,5.6-4.5,9.4,3.5,2.2,3.8-2.4,6-3.5l-4,13.9v-5.9s-2.5,3-2.5,3l-5.5-5.9h1.2s.7-4,.7-4l1,4c6-4.1-.7-11.2-1-14.4-.4-5.1,6-10.4-3-13.4v7.4s-2,13.4-2,13.4l1-21.4c-.5-2.6-4.9-4.3-6.1-5.9s.5-4.3-2.4-5.5c-2.9,3.3-3.2,10.2-2.5,14.4s6.1,7.3,4.9,8.5c-1.3-1.8-3.8-.9-3.9-1-.5-.8.4-4.1-1.6-4.9l-1.5,3c2.3-5.5-4.4-8.6-4-12.3s3.9-2.9,4.6-5.6-2-2.7-1.6-5l3,2c.3-6.1-2-14.3-7.9-16.9.7,7.1-3.5,14.7,0,21.4l-2.9,3.4c.4-7.8-4.2-13.3-7.3-20s-1.4-6-2.5-7.2-5.6-1.1-7-3.2c-4.6-1.3-.1,10.8.5,12.5,2.7,7.5,7.3,14.1,11.4,20.9-2.7,2.6-11.3-15.7-12.1-17.2s-2.7-2.4-3.3-3.7-.2-6-1.5-7.9c-11,5.6-6,13.6.5,20.8,2.2-3-2-9.2,1.5-10.9,1.5,4.6-1.1,9.3.8,13.6s12.3,10.2,15.6,15.1c2.5,1.1,2.6-7.9,2.5-8.9l1,4,3.9-4c2.1,4.1-2.3,4.5-3.4,7-2.8,6.1,3.4,5.6,7,8.9l2.4-1.9c2.6,8.4-.4,4.1-4.6,2s-2.6-.1-3.1-.4.2-2.7-2.2-1.7l-1,3c1.6-6-5.4-7.6-9.4-10.9-12.8-10.4-22-18.1-35.8-27.7s-13-9.5-15.4-15.9l-6.9,1.5c6.9,7,13.8,14,21.4,20.3,12.3,10.4,28.5,22.4,41.8,31.6,2.9,2,15.1,10.6,17.5,10s1.9-2.4,3.7-1.8l1,5.5,4-.6c0,1.3.2,2.4,1,3.4,2.6,3.2,11.2,7.2,13.9,11.5l-16.6-7.8c-2.9-1-1.6,2.9-5.2,1.8,1.5-6.5-7.1-8.4-11.8-11.5-10.8-7.1-21.5-15-31.8-22.8-24.1-18.3-47.6-38.2-64.6-62.5-11.6-16.5-18.6-35.6-28-53.4-6-11.4-5.7-13.9-7.1-25.8s-11.2-25.3-10.6-39.4l-3,5c-1-6.2-2.8-12.7-4.7-18.6-3.4-10.5-7.5-18-8.2-29.5-.8-11.9,2.4-56-1.5-63-1.4-2.4-4.8-4-6.1-6.8-2.4-4.8-2.9-16.1-2-21.4s3.3-4.6,3.8-9.1c1.2-11.7-5.5-22.2-3.9-34.7,1.9-15.2,12.3-20.9,6.6-37.6-2.4-7-9.7-26.4-14.6-31.1s-3.8-1.4-4.6-2.4-5.9-16.7-7.2-19.5c-2.5-5.4-5.8-5.2-6.9-6.5s0-2.6-.8-3.7c-5.5-8.7-18.1-18.1-25.2-26.7s-13.7-20.5-23.8-28.6-6.6-4.4-8.5-4.5c-3.3,0-4.6,1.7-7.4,3l2-5c-1.7,0-3.5.2-5.2-.2-30-8.3-45.9-10.1-65.1-36.2-2.5-3.4-7.5-13.4-9.6-15.2s-2.2-1-3.5-1l2-1.5c-15-22.6-22.2-52-11.4-77.9,1.9-4.6,4.9-8.4,7.1-12.7s1.2-5.9,1.8-7.1c3.1-6.3,17.3-14.5,24.3-16l-2-2c9.8-.8,28-.7,35.7-7.5s1.5-3.3,2.3-4.2,2.8-.9,3.6-1.8c5.5-5.7,8.4-12.2,13.9-17.8-1.8-1.1-4.2,1.3-5.9,2s-3.9,1.4-2.5-.5c12.4-6.8,23.6-16.3,38-18.6,13.7-2.1,25.4,2,38.9,2.7l-7.9,1.5c3,2.5,6.8,3.6,9.8,6,6.9,5.5,24.3,37.6,27.6,46.8,10.9,30.6.5,54.2,18.9,86.3,6.2,10.8,26,32.2,35.9,40.5s17,11,24.7,16.9,11.5,8.8,13.5,11.3.6,2.3-.5,5.4l1.9,2.1,3-.5-2-4.4c-.3-1.4,0-1.9,1.5-1.5,5.8,1.7,13.8,15.8,21,16.9,1.6.5,1.3-2,2-2,1.4,0,9.8.7,6.9,3l-6.5-1c4.4,4.6,11.4,3.9,16.9,2l-1,4,74.5,16.9c-.9,1.8-1,4.9-3.4,4.9s-12.8-4.2-17-4.9c-10.6-1.7-21.6,0-32.2-2.1,1.2,9.3,13.9,8.9,20.8,11.9l-1.3,1.8-11.6-2.8-.5,3.9c-3.3-.9-3-4.1-5.1-5.8s-19.4-8.7-21-8.9c-2.4-.3-4.6,1.3-7,.2s-.9-3-1.2-3.3-4,.6-6.3-.1c-6.6-2-9.5-8.9-13.6-10.4s-4.6.6-6.9-.5l2,4-6-1c.2-1.3,1-2.1.1-3.5-2.7-4.4-11.6-10.1-15-14.2s-6-12.4-10.4-17.1-19.5-12.9-26.9-19.8c-5.4-5-9.4-11.1-14.3-16.4-13-13.8-22.3-21.1-28.9-40.6-6.4-19.2-4.2-31.8-5.9-50.7s-16.4-45-28.8-57.6-.5-2.6-1.6-3.6c-2-1.7-8.2-2.4-10.5-4.8s-.9-2.9-2.1-4.1c-2.8-2.8-10.6-3.1-14.5-2.9l3,2c-11-.6-22.8,2.5-29.8,11.4l3,1.5-4.2,1.3c-1.7,3.1-6.4,3.4-7.6,6.3s-.6,2.8,1.3,2.3l2.5-4,1,4c2.5,1.7,8.6-7,11.9-6.9-4.4,6.5-14.8,9.5-10.9,18.8l6.9-6-4,6.9,3,2h-5.9s4,5,4,5l-5.4-1.9c-9.9,11.3-18.9,24.8-35.3,25.8-.8,1.1,2.3,7.7,2.7,9.6s-.6,8.4,1.7,7.2l19.9-20.8c.7-.2.7,1,.5,1.5-1.9,4.2-16.8,15.4-19.7,21-2.8,3.8-1.5,8.6-2.4,12.5-5.6,24.2-23.2,45-44.3,57.5-1.9,3.1,14.9,25.3,18.2,28.7,7.7,7.8,25.3,17.1,36.3,15.4s3.2-.1,3-1.5c-15.9-2.5-36.1-12.6-43.5-27.5-.4-.9-2.1-2.6-.6-3.3,2.1,3.1,4,6.3,6.5,9.1,5.6,6.3,19.1,15.2,27.2,17.7s11.4.2,21-.9,9.6.1,14.3,0c-.1,3-21.8,7.4-19.9,9.9l9.4,3,3.5-3-2,2.5,5.4,2.5c-1-7.3,5.6-5.6,9-9.9l-1.5,5,7.9-1-8.9,3.5c1.6,2.4,4.5,3.7,6.3,5.6,2.7,2.8,2.8,7.1,7.6,5.9.5,2.7-.6,1.5-2,2.5l25.3,30.3c2.9-1.9.7-4.4.5-6.9l2,1,3-11.4c3.8.6-1.2,7.8-1.8,11.2s.8,2.8.8,3.6-1.8.5-2,1.2c-1,3.9,2.1,5.9,4.5,8.3l1.5-2c-.5,3.3,1.1,5,3.5,6.9l1.5-6.9v8.9s3-1.7,3-1.7c-.8-7.1,8.3-19.8-5-16.2,1.9-5.2-.1-6.9-3-10.9,3.9-.5,4.2,7.8,6.4,2,2.2,1.4,0,3.2,1,5s1.9,0,2.3.3c2.1,1.8,4,5.2,6.2,7.1l-2,1.5c6,2.1,1.4,3.7.8,5.3-1.7,4.6-2.3,9.9-3.8,14.5,3.3-1.8,4.2-6,6.4-9s0-2.4,2.6-1.9l-3,14.9,7.4-10.9,2.1,2.4-3.6,15.4,3.5-7,2.5-2-3,16.9c4-1.4,5.1-12.1,7.9-13.4l2,1c-.4,3.7-3.2,9.6-3.1,12.9s3.6,1.5,3.1,4.5l-4-1,1,6c.7.5,10.8-13.1,9,2.9,1.5.2,3.9.4,5,1.5s.2,3.6,1.9,3.5c1.6-4,.1-6.3-.6-9.9s-1.3-3.3.6-3l4,12.9,1.5-2c2.6,5.6,6.1,3.6,11.2,4.1l1.1,2.7c-2.4.6-3.7,1.5-3.9,4.1-4.2,1-5.8,3.8-6,7.9l2.1-2.9c5.4.8,3.7-2.6,3.9-5.1.2,0,1.2,1.3,2,.6l1-2.5c3-1.1,1.3,3.8,3.4,1s5.4-11.9,6.5-16.8c4.3-.6,1.6,7.6,5.8,4.9s7.7-14.1,8-16.3c-5.1-1.9-1.8-5.3-1.9-9.4l3.9,6.9c1.3-3.4,4.9-12.9,7.9-14.4s2.9.2,3,1-6.7,10.9-7.8,13c-3.3,6.7-7.3,20.4-11.2,25.6s-5.2,3.6-5.7,5.3.9,3.7.8,5.6-1.6,5.5-.9,8.5c-2.8-1.3-1.8-6.4-2-8.9-1.2,1.6-5.1,5.8-5,7.5.2,2.9,2.9,1.5,4,3.2s-1.4,7.3-2,9.7l3,.5c-4.1,2.6-1.9,3-2.6,5-1.1,3.4-2.8,6.6-2.5,10.3l3.1,1.1v5.4c0,0,2.9-5,2.9-5-2.1,11.6-5.5,21.8-3,33.7,4.2-2.7,3.7-8.8,4.7-12.9s2.9-4.3,2.3-7.3-1.9-.6-2.1-1.3c-.3-1.7,7-29.9,8.2-33.3s.9-2.8,2.2-3.7l-8.4,36.7,2.5-4,.5,4c5.5.4,7.6,2.3,6.9-5-1.3.7-2.6.8-3-1,4.5-.3,2.3-4.4,3.2-7.3s2.1-2.1,2.5-3.4c1.6-5.3,1.9-10.9,3.7-16.1,1.8,1.6.6,5.2.3,7.3-.5,3.7-4.9,24-3.8,25.5l1.5-1,4.4-11.9-2.4,15.4-7,9.4-.5-4-13.9,16.9c.6.6,12.1-7.6,13.9-8.4s9.9-3.7,9.9-2c-9,3.2-18.3,7.6-24.6,15.1l1.7,26.7c-.8,19.4.8,39,1.1,58.4.2,10.8-.2,21.5,0,32.3l-3-24.3c2.2-5,0-9.2,0-13.9-.3-8.4.3-16.9,0-25.3l-3.8,17.5c-1.7,18.3-4,36.5-3.1,55l3-1c-1.8,5.7.5,12.4,2.3,18.1s5.1,14,8.6,18.6c0-10.4,0-20.9,0-31.3s.2-28.5.1-42.7-1.8-6.8-1.1-10.4l-2,.4c5.1-8.1,0-18.7,1.3-27.5s.4-3,1.7-2.7l1,13.9,1-4c1.3-.3,1.5,1.6,1.5,2.5.2,11.8,0,23.5-.5,35.2l2-2.5-2,22.3,2-11.4c1.3-1.6,1.1,1.2,1,2-.2,4.9-1.8,10-2.1,14.8-.4,7.1.4,14.3,0,21.4l2-1.5-1,13.4,7.7-18.6,3.2-50.9,2,10.9v-28.8c2.3,1.3.3,5.9,1.2,8.3s4.1,1.9,4.4,5.1c-.8,12.6-1.9,25.1-2.5,37.8-.1,2.9-2.7,5.1,1,5.9-3.5,4.2-1,10.5-2,14.7s-1.8.6-1.9,1.4c-.8,3.4-.7,9.5-1,13.2,6.3-6.1,11.6-15.8,10.9-24.8l-3,5v-44.7h1c-.4,1.2,1,2.9,1,3.5v27.3l2-10.4c.5-12.5.4-25.2,2.1-37.6.2-1.5.5-6,1.9-6.6v13.9c4.2.9.8-4.8,1-5l7.5,2.1,2.5-1.6-1.1,7.4-9.4-.8-1.1,1.4-.2,22.9,1.9.4v1.5c-.4,1-2.7,1-3,2.2-1.3,5.5.7,15.5,2,21.1l2-3,1,4c.5-4,2.4-8.6,4.2-12.2s1.7-3.2,1.7-.3l-4.9,16.4c1-.5,2.4-1.9,2,.5s-3,6.7-4,9.9c-4.7,15.2-8.5,29.4-5.7,45.4s3.2,9.4,3.7,14.2c1.5,14.9-1.1,31.3,2.1,46.5.7,3.4,1.8,5.8,3.9,8.5-3.6-.7-.7,3.6-3,4,0-4.3-1.8-9.7-5.7-11.8s-3.2,0-3.3,0c-.3-.5.2-2.5-.5-3.9s-2.6-3.6-3.5-5c.9.3,1.8,1.3,2.5,2,.1-11.9-3.8-24.1-4.5-36.2-.7-12,.4-30.9,3.1-42.6,1.1-4.7,3.9-9.3,4.6-14.3s-.4-9.5,1.2-14.1c-2.6-.5-1.7.5-2.4,2-8.6,18.4-13.5,52.6-14.4,73-.2,3.6-.8,17.4,0,19.7s2.4.5,3.5,1.6,5.4,7.3,6.4,9ZM266.8,130.8c1.8-2,9.1-6.5,5.2-10.1l-11.4,10.4,5,.5.5,2c1.5-.6.6-2.5.8-2.8ZM277.5,133.5c-1-2.6,1.5-6.4-2.5-7-.7,1.5-6.5,6.7-5.5,8,1.7,1.9,2.2-1.9,2.4-1.9l5.5.9ZM262.6,134.5c-1.3-1.2-9.3,3.8-9.9,5.9,5,1,9-.5,9.9-5.9ZM266.9,146.7c3.8-1.7,5-5.2,6.6-8.7-9.7-6-7.4,3.9-9.8,7s-12.9,4.7-12,12.3c1.6,1.5,12.3-5.8,13.9-7.4l1.3-3.2ZM254.6,142.5c-5.2-.2-8.8,1.6-13.3,4.1s-1.4,2.4-1.8,2.7c-.8.5-2.5-1.8-3.7.6,2.1,3.2,3.8.1,6,0s6,.1,5.9,1.5l-9.4.9-.6,3-5-3,1-2c-9.3,1.6-19,2.6-24.8,10.9,8.8.3,15.1-4.7,23.4-5.9s-1.1,2.8,1.9,1.9c8.1-2.4,20-4.7,20.4-14.9ZM237.7,161.3c-4,.8-8.8-2.5-12.4-2-3.1.4-13.2,9.6-15.4,12.5-6.5,8.4-9,18.8-13.4,28.3,1-9.5,5.8-20.6,11.2-28.5s8.4-9.1,5.7-8.2c-14.1,6.7-14.4,18.8-17.4,32s-1.6.6-1.9,1.5c-1.6,5.4-.7,13.4-1.1,19.1-1.7.2-.9-2.3-1-3.5-.3-8.4.7-16.1,2-24.3l-4,12.9c-1.7,0-2.1.6-1.9-1.4,1.3-10.9,6.4-21,9.8-31.4-5.3,4.1-7.7,12.6-9.2,19-5.6,22.8-3.3,46.9,11.9,65.2,18.4-10.7,38.8-32.2,43.6-53.4,1-4.3,1.9-13.8,1.5-18.3s-2-11.8-3.2-13.2c-1.8-2-6.8,0-8.7-2.7l4-3.5ZM525.1,342h21.3l-40.2-9-1.5,6c11.4-4.2,12,7.3,20.8,8.9l-1.9-3.6,1.4-2.3ZM663.6,379.7c-11.2-10.9-28-10.9-41.7-16.9,11.8,8.9,27.7,12.5,41.7,16.9ZM351.9,381.7c3.2-2.9,3.6-9.6,3.9-13.9-3.8,4.2-7.3,8.7-3.9,13.9ZM372.7,394.6c-1.9-.5-1.9.7-2.8,1.7s-3.9,4-2.2,4.8l5,.5v-6.9ZM404.5,436.3c-2.3-2.5-5.7,9.3-6,10.1-.7,1.6-3.4,1.7-1.4,6.7l-2.5,1-1-3-2,11.9c3.5.4,7.1-.1,9.3-3.2l3.6-23.6ZM398.5,467c-6.8-1.2-7.3,9.9-6.9,14.9,2-1.6,3.8-5.3,4.8-7.6s2.2-4.6,2.1-7.3ZM422.4,471l-7-.6c-5.8,12.6,5,9.6,7,.6ZM399.6,497.8l5.7-6.6-.7-8.3c-1.5,0-1.8,3-2.2,4.2-1.1,3.4-2.1,7.2-2.7,10.7ZM390.5,489c-3.3-2.6-4.8,10.7-3.9,12.8l-1.5-5.9c-1.4,2.2-5,7.4-5.3,9.7s1.4,6.4,2.8,7.2l1-9.9,2,17.9c1.7-.4,2-5.1,2-6.4,0-4-1.4-7.5-1.1-11.4,2.6.5-1.1,6,3,5l4-17.9-2.8.8-.2-1.7ZM401.5,509.7l1.5-8.9-9.4,10.4,2.9,4.5c-3.6-1.2-3.7,3.4-4,6.5-.9,9.4.3,16.3-1,26.8-1.1,9-.7,18.2-2,27.2,2.8.5,1.7-.6,2.2-2.2,5-14.1,7.4-33.9,3.7-48.4l4.8,2.4.2,8.5,2-3c-.5,5-1.2,8.9,0,13.9,3-3,2.4-10.7,3-15.3s1.6-2.8,2-5c1-7.2-2.4-16.7-1-24.4-2.3-2.9-3.1,7.4-4.9,6.9ZM382.7,524.6c1.4-1.7-3.7-13.2-5.9-14.9-.5,1.6,3,18.4,5.9,14.9ZM382.7,540.5c-.4-2.5,3-14.7-1.5-14.9s-.8,3-.8,3.7c.1,3.1,0,6.9.3,9.7s-.3,1.6,2,1.5ZM402.5,564.8v-14.9c0-.2-.9-3.9-2-3.5-1.9,11.8-.7,23.8-1,35.7l3-17.4ZM397.5,610c.4-17.1,2-34.4.5-51.6l-2.5,32.2c.3,4.3-.3,8.7,0,12.9s.5,6,2,6.5ZM393.6,592.1l1-20.8-3,10.4c0,2,0,3.9.2,5.9s.4,4.7,1.9,4.6ZM385.6,627.8c-2.6-9.1-2.6-18.7-4.3-28s-.2-4.8-1.7-4.8c-.1,8.1.4,17.1,2.3,25s1.4,6.5,3.7,7.7ZM413.4,686.4v-24.3c0-.9-6.9-14.7-7.4-15.4s-1.2-1.3-1.5-1v1.5s8.9,39.2,8.9,39.2ZM403.5,666.6c.2-2,0-4-.4-6s-2.6-7.9-4.5-9.9l.4,5,4.5,10.9ZM433.3,658.6l.5-6.9c-4.3,4.1-3.8,10.5-5.5,15.9l-2-5-2,22.8-2-8.9-1,38.7-2-13.4c-.2-2.9.3-5.9,0-8.8s-1.2-5.9-2.9-6.5c-.2,13-3.7,28.7,6.4,38.7l1.5-33.7,2,10.9,5-45.7,2,2ZM448.2,750.9c-3.5-17.2-5.2-33.6-5.9-51.1,0-1.2.7-3.7-1-3.5.6,14.3-1.2,29.9,1.1,44,.8,4.7,1.2,8.1,5.8,10.5ZM433.3,748.9l-1.4-6.9-4.5-10c-.3,5,.7,10.7,3.4,15s.1,2.4,2.6,1.8ZM877,747c-2.9-.5-1.6.7-2.1,2.3-3,9.5-4.8,26.9-4.9,36.9s-.5,2.8,1,2.5l6-23.3v-18.4ZM532,792.4c-1.9-5.1-1.4-10.2-6.9-13.6l-7.4,11.2c1.9,3.1,6,3.3,5.9,7.6,3.1-1.3,1.7-7.1,5.9-6.9.5,2.1-1.8,2.6-2.4,4s-1.6,6-1.5,6.3c.2,3.4,3.5,6,4.6,7.9s0,4.1,2.3,4.6c2.3-4-.9-7-.9-9.4s2.8-5.6,2.6-8.8-2.2-2.6-2.3-2.8ZM503.8,792.6c3-2.8-.3-8-3.9-8.9.3,1.2,1.5,11.2,3.9,8.9ZM849.2,821.4c2.2-2.3,4.3-7,5.4-9.9s2.6-6.4,2.5-9.9l-7.9,19.8ZM499.6,806.7c-.9-.5-4.7-.6-5.7.3,1,2.2,4.7,2.7,5.7,3.7s.5,2.6,1.5,3.5,1.9,0,2.3.5c1.3,1.2,1.5,4.1,4.3,3.7-2.2-1.3-7.5-11.3-8.1-11.7ZM831.7,837.6c.3-.4,8.8-7.6,2.8-5.6s-7,8.7-8.1,12.2c2.4-1.5,3.6-4.5,5.3-6.6ZM810.7,842c-.5-.7-.2-1.8-.3-2.7-2.5.2-7.9,8.1-7.9,9.4,0,2.4,2.2.5,2.4.5,4.5-.5,5.5-2.4,8.4-5.5,0-.7-2.2-1-2.7-1.8ZM826.4,851.2c3.8-2.5,6.9-7.5,7.9-11.9-3.5,2.7-7.8,7.4-7.9,11.9ZM821.4,853.2l3-7.9c-.7-1-11.3,13.6-10.9,15.9.4.4,6.6-3.6,7.3-4.1s5.9-5.4,4.1-5.8c-2.6-.5-.3,2.9-3.5,2ZM729.1,856.2l-16.9,4c3.1,5.8-4.2,12.5-4.9,16.4s1.8,9,1,13.4c5.6-1.6,4.4-6.1,5.9-10.5l-2.9.6-1-6.9c3.9-1.2.3,4.9,3.5,4s.3-4.8,3.5-4l-1.5,9.9c3.1-2.3,14.5-25.7,13.4-26.8ZM809.2,863.8c1.4-1.3,3.5-5.5,3.3-7.6l-9.9,9.4c1.4,1.2,5.6-.9,6.6-1.8ZM595.1,879c-2.9-7.8-11.3-7.1-17.9-8.9-.6,2.6.7,1.7,1.9,2.5,2,1.2,15,7.3,15.9,6.5ZM769.8,872c-6.5-1.1-9.8,6.7-10.9,11.9,5.5-1.7,9.9-6.2,10.9-11.9ZM633.8,874c-2.6-.4-1.8.4-2.3,2.1-.7,2.6-2.1,11.9-1.8,14.3s1.4,1.2,2.6,2.4l1.5-18.8ZM740,886.9c6,1.4,10.1-3.8,12.9-8.4-1.5-2.1-1.4-1-2.6-.7-4,1-10.8,4-10.3,9.1ZM629.8,878c-2.7-.6-1.7.7-2.5,2-1.2,2.1-2.4,4.3-3.5,6.5l3.5,4.4,2.5-12.9ZM600,885.9l-17.9-7c3.2,3.2,9.6,6.2,13.9,7.4s4.1,1.5,4-.5ZM705.3,879c-4.7-1.3-6.8,13.1-5.9,13.9,2,.1,7.2-.6,7.9-2.6l-1.9-11.3ZM736,884c-1.1-1-9.8,3.5-7.9,5h6.8c0-.1,1.1-5,1.1-5ZM747,889.9c-4.6.4-8.6,2.9-10.9,6.9,5.5,0,10.8-.2,10.9-6.9ZM698.3,895.8c5.2-.5,17.4,4.1,21.4,1.1,3.7-2.8-.3-6.3-3.9-6l-17.5,4.9ZM746,896.9c-3.3,1.2-8,1.3-10.9,2.4s-3.7,3.5-5.4,3.5-2.8-1.5-4.2-1.8c-3-.5-6.2,0-9.2-1.2v3.9c3,1,11.8,2.6,13.3,5s-2.4,3,3.8,1.8c1.9-.4,4.7-1.5,5.8-3.2s-.1-3,0-3.4c.3-.5,6.7-4.2,6.8-7.1ZM714.2,907.8c2.8-2.9-14.9-7.5-15.9-9.9l-.6,3c4.3,4.7,10.8,4.8,16.4,6.9ZM659.6,905.8c-3.2-4.2-10.6-3.1-15.2-4.2s-4.6-3.2-7.7-2.7l9.1,5.2,13.7,1.7ZM682.5,904.8c14.3,10.1,13.5-3.7.5-2l-.5,2Z"></path>
  <path d="M595.1,842.3c-.9-.8-3.5-1.8-3.8-2.2-1.6-2.8,2.7-4.6-6.2-3.7v4s5-1,5-1l-2,1.5,7.9,7c-2.9.9-6.2-3-8.4-4.5-.9-.5.3,3.7-2,1-3.8-4.4-6.1-15-6.6-20.8l-2.9-.6v-7.4c0,0,2,5,2,5v-10.9s8.9,2,8.9,2l4-21.8c1.9-.2.7,2,.5,3-1,5.6-3,11.1-3.5,16.8l8.9-4.5c-.9,2.1-9.3,6.5-7.9,8.4l13.6,6.8,7.2-2.8-6.3,7.6-4.6,1.9v2c3.2.6.6,2.1,1.5,3.5l1.1,1,4.4-1-1-2c4.7,2.5,9-9.1,11.9-6.9-3.4,5.1-8.4,10.2-14.9,10.9l2,6.9c1.7.4.4-1.6,1.6-1.9s3.5.2,3.7.3c2.2.9,2.9,5.2,4.6,3.6s-1.1-6.2,1-6.9c-.3,3.1,3.4,2.6,3.8,3.1.8.8-.9,5.6,1.7,6.8s.9-2,2.1-3,2.1-1,2.8-.9c.5,2.8,1.3,4,4.5,4l-1-7.5,2-.5c-1,3.2,1.9,2.8,2,3,.3.4-3.3,2.5-.5,5s5-.6,5.5,0-.9,3.6,2,3v1c-5.8.2-.5,6.9-3.6,7.8l-5.3.2v-4.9c-2.9-.7-5.2-1.7-7.9-.1l-.5-3-2.5,5.5c0,.6,4.5-.7,2,2-1.4.8-11.7,1.1-11-2.5h-1.9c0,.1-.7,2.1-.7,2.1l-3.3-1.1-.6-3.9c-1.3.1-.9,8-7.4,1.5l2-1.5-7-.5c-2.3-2.5-.1-.9.9-1.1,2.1-.4,4-.7,6-1.4-1.3-2.6-2.8-4.1-4-6.9,1,.8,5.2,4.8,6,4-2.1-3,.7-5.5.6-7-.2-2.4-3.8-5.4-2.6-8.9l-7.9,1.1.5,3,3.4.9c-2.4,2.3-1.2,4,0,6.9ZM590.3,822.2c.5.3,10.8,1.8,10.7-.3l-12.4-6.5c-1.7,0,.7,6.2,1.7,6.7Z"></path>
  <path d="M460.1,679.5l4.9-17.4,3-2.4c.7.8-5.5,16.3-5,20.3s.7,2.4,2,2.5l2-13.9c1.3-1.6,1.8.1,2,1.5.6,4.5-1.7,8.9-1,13.4l3-8.9c1,2.6,4.6,2.9,4.8,3.1,1.4,1.5-1.7,9.9,0,13.2s4.6-.9,4,2.1c-4.1,3.4-5.9,5.8-4.9,11.4l3-1,.5,3,6-4.9h-3.5s1-3.9,1-3.9c1.9,1.1,3.1.8,4.4-1l.6,1.8,2.9-.8c-1.8,3.8-2.5,6.6-2,10.9l-2.5-5.9c-4.4,4.3-9.1,6.8-10.9,12.9l-4-4.9-1.5,2c-1.1-3.2,1.9-2.5,2.1-4.4.4-4.4.6-10.2.9-14.9s.7-5.5-1-5.5l-4,34.7c-2.8-1.3-1.8-6.4-2-8.9l-2,4c-2.9-11.1.9-22.5,1-33.7-3-.5-1.6.7-2,2.4-1.7,7-2.3,14.2-2,21.4-2.8.5-1.6-.7-2.2-2.2-5.3-12.8-1.6-32.1,1.7-45.5s1.7-8.9,4.5-10.9c2.6,2.9-5.6,25.4-3.9,30.8Z"></path>
  <path d="M452.1,315.2c-.2.2-2.9-1.6-3.5-2-20.3-15.8-57.1-40.9-67.2-64.8-.7-1.6-1-3-.8-4.7l6.7,11.6c16.3,23.5,43.1,36.6,62.8,56.3,1.1,1.1,2.3,1.7,2,3.5Z"></path>
  <path d="M364.8,304.2c-2.3-.3-4.6-2.6-6.4-4-4-3.1-8.1-6.6-11.9-9.9s-7.5-8.4-11.5-11.3-10.7-2.7-11.8-7.5l3,.5-20.8-22.3c2.8-.3,5,1.9,7,3.5,11.7,9.4,23.9,24.6,35.2,35.3s12.4,9.9,17.4,15.8Z"></path>
  <path d="M779.7,828.4l3.9-3,2,4c-9.4-3.8-9.4,13.3-11.8,19.4s-1.1,1.4-2.6,2.5l1.5-10.9-4.9,2.5c4.2-5.3,9.4-12.5,9.9-19.4-3.1,2.3-3.5,9.9-8.9,9.4,2.4-1.9,2.8-5.1,4.5-7.4s5-4.3,5.8-6.1c3-6.2,3.3-20,6-27.7s.6-3.5,2.5-4l-7.9,40.7Z"></path>
  <path d="M803.5,691.4l-.7,6.5c.4,1.1,1.1,1.4,2.2,1.5,5.9.6,1.5-8.1,6.4-8,2.8,5.2-1.9,7.7-2,11.4s2.7,12.4,6,14l4-1.6-1,2.5c-4.6,3-8.6-5.9-9.5-9.4s1.2-9-4.9-8-3,3.2-1.4,5.4,2.9,1,2.9,2.6c-3.4,1.4-4.3-3.7-5.5-4s-12.6,11.2-10.2-4.7c4.9-3,5.3-3.3,10.7-1.2.5-.5-.9-7.9,3-6.9Z"></path>
  <path d="M467,573.3c1.2,8-1.3,15.7-1.9,23.4s2.7,6-1.1,7.3l-2-6c.2,3.2-.3,6.2-1.3,9.2s-2.1,5-3.7,5.7c.2-1.3-1.1-1.6-.3-2.9,5.9-9.9,4.5-23.9,7.8-34.9s.2-2.3,2.5-1.9Z"></path>
  <path d="M791.6,629.8c-3.3-1.6-5.1,3-8.9,2,1-6.9-5.6-15.9,4.8-16.8,3.2,4.5,4.4,9.2,4.1,14.8Z"></path>
  <path d="M389,264.1c2.9,3.4,6.4,6.6,9.5,9.8.2.7-1,.7-1.5.5-1.7-.7-10.2-9.8-11.9-11.9s-5.6-8.9-6.9-10.1-2.3.1-2.4,0c-.4-.5-1.6-6.4-2.3-8.1s-8.8-14.3-1.8-10.6v-5.9s4.8,17.5,4.8,17.5c3.2,7.1,7.6,12.9,12.5,18.8Z"></path>
  <path d="M575.2,775.8l-5.8,5.6-9.1,16.2-1-2-3,2c.4-4.2,5.4-6.1,6.5-9.9s-.3-3.6,0-5c1.3-4.2,4-7.8,5.3-11.9l.5,6.9c2,.3,3.1-4.3,6.4-2Z"></path>
  <path d="M452.2,663.1c.6-5.5,4.8-20.4,6.8-25.9s.5-2.8,2.1-.9l-8.9,50.1c.5-7.5-.7-15.9,0-23.3Z"></path>
  <path d="M822.4,826.4c3.3-9.6,4.9-21.5,8.4-30.7s2.1-5,4.4-6c-2.5,7.8-4.4,15.8-6.5,23.8-.3,1.3.4,2.7,0,4-.6,2.2-4.6,7.2-6.5,8.9Z"></path>
  <path d="M565.3,809.5c0,3.1-9.4-2.1-7.9,1.5,3,4.4,9,1.7,9.6,8.1s-1.6,4.1-.2,6.3,7.9,1.8,7.5,5.9c-7.3-1.5-11.5-7.2-10-14.8-5.6,1-9.1-5.4-10.4-9.9s-.9-3.8,2.5-5l.9,6.5,8,1.4Z"></path>
  <path d="M311.2,294.3l-4.6,2.9.6,3c-6.3-.3-10.4,5.7-2,7l-2,1.5c2.6,2.3,4.8,5.2,7.4,7.5s.2-.6,3.1,2.8,4.3,3.5,4.4,6.1l-20.6-19.3,3.7-6-2-1.5c5.5,0,6.5-4.8,11.9-4Z"></path>
  <path d="M436.3,465.1l2-18.8,2,2,1-3c.7,3.5-1.3,6.3-1.9,9.5s-.8,3.7.9,3.4l6-15.9c-.8,5.1-2.5,12-4.6,16.7s-2.3,6.3-5.3,6.1Z"></path>
  <polygon points="754.9 802.5 745.3 762 744 750.9 750.6 778.5 754.9 802.5"></polygon>
  <path d="M455.1,529.6c.2,3.9-.9,7.4-1.1,11.4s2.1,11.4-.9,8.4c-2.3-5.5.9-11,0-16.9l-4,11.9-2.9-.4c1.1-1.8,5.3-18.2,8.9-14.4Z"></path>
  <path d="M337,309.2l-2,1,2,3c-5.3-.4-7.8-4.8-11.6-6.8s-4.8-1.2-7.2-2.7-5.2-5.3-7-7.4c2-.5,2.7.7,4,1.4,6.7,4,13.8,11.5,21.8,11.5Z"></path>
  <path d="M640.6,831.2c-.2.3-1.8.4-2.2,1.1-.6,1,0,3.6-2.6,4,2.6-4.7,0-13.2,1.1-17.1s5.6-4.8,6-8l4.8-17.6c.5,6.8-1.8,11.9-3.3,18.1s-3.5,10.7-4.4,15.4.8,3.9.7,4.1Z"></path>
  <path d="M459.1,744c-1.5-.2-1.6-4.2-1.8-5.6-1.2-6.8-2.1-14.5-1.7-21.2.5.8,3.5,4.2,3.5,4.5v22.3Z"></path>
  <path d="M472,724.1l1-5c4,2.7,2.8,8.8,3,12.9-7.6-3.1-5.9-12-5.9-18.9,3.2,2,1.6,7.7,2,10.9Z"></path>
  <path d="M818.4,800.6c.1,3.9-3.4,6.9-4.5,9.9s.2,2.7-.2,3.8c-2.8,7.1-4.8,12.3-11.2,17.1.9-2.3.1-6.7.5-8.4s1.6-2.7,2-4.5c.6-2.7,2.8-16.3,3.5-16.9s2.1-.6,1.8,1.3c-.9,4.9-1.6,9.8-2.4,14.7s-1.7,4.2-2.1,6.6-1.1,3.4.7,3.2c3-7.5,5.4-16.3,8.8-23.5s.6-3.9,3.1-3.3Z"></path>
  <path d="M763.5,835l-14.6,14.2c1.2-6.5,7.4-8.5,10.6-13.7s2.9-7.1,4.3-10.1c1.4-.3,1.6,3.9,1.5,4.5-.2,1.6-1.4,3.5-1.8,5.1Z"></path>
  <path d="M480,752.9l3-5-2,8.9,3-2c.5,2.6-3.3,3.7-3.7,5.6s2.6,5-1.2,4.3v-24.8c1.5,0,1.3,4.6,1.4,5.8,0,2.3-.7,4.7-.4,7.1Z"></path>
  <path d="M349.9,178.2l-.5-4,10.4-24.8c.3,10.4-6.6,19.3-9.9,28.8Z"></path>
  <path d="M487.9,719.2l-6,4c-.4-.4,4.7-4.9,5.2-6.2,1-2.4,0-5.7,1.7-6.7-.2,2.5-.7,3.7,2,4.5-3,2.3-1.8,6.1-2,9.4l2-.5-3,9.4v-13.9Z"></path>
  <path d="M318.6,332.6c1.1,1.3,9.2,7.2,3.6,7.4l-15.9-19.8c2.1-1.9,10.8,10.6,12.3,12.5Z"></path>
  <path d="M451.1,593.1c-.5,3.1,3.8,3.7,4,4,.3.4-3.8,7.1-2,9.9-1.3,1.8-3.6-4.1-3.7-4.6-.3-2.5,2.5-4.8-1.3-5.8v-2s3-1.5,3-1.5Z"></path>
  <path d="M490.9,628.9c-3.3,4.3-10.7,6.5-15.9,7.9l6.3-5.1,9.6-2.8Z"></path>
  <path d="M578.2,807.5l-1.6-7.6.6-12.7,3-9.4c-1.5,9.9-2,19.7-2,29.8Z"></path>
  <path d="M365.8,298.3c-3.2-2.9-5.6-6.7-8.4-10s-1.7-1.9-3.1-3.9-3.3-.5-2.4-4c4,3.8,9.5,9.3,12.4,13.9s2,2,1.5,4Z"></path>
  <path d="M460.1,550.4c-4.6.7.6-8-1-9.9l-3,1v-3s3,1,3,1l2-8.9-1,19.8Z"></path>
  <path d="M618.9,811.5l3-.5c-3.6,2-4.8,4.3-5,8.4l-1.5-4.5,4.4-14.4-1,10.9Z"></path>
  <path d="M611,745l-2,6.9-1.5-4-8.4,6.9c2.3-5.4,6.2-9.1,11.9-9.9Z"></path>
  <path d="M872,737c1.6-3.6.9-7.9,1.4-11s1-6.1,2.5-6.9c-.9,5.4,1.4,14.5-4,17.9Z"></path>
  <path d="M793.6,788.7c-.6.6-2.1.7-1.8-1.2.5-3.2,1.5-6.4,1.4-9.7l2.3-5.9c.9,2.3-1.2,16.1-2,16.9Z"></path>
  <path d="M801.6,774.8c-.3,4.5-1.2,9-2,13.4s.6,1.7-2,1.5c-.2-4.2.9-8.4,2-12.5s-1-2.9,2-2.4Z"></path>
  <polygon points="412.4 446.2 411.4 437.3 409.5 438.3 409.5 435.3 411.2 436 414.4 433.3 412.4 446.2"></polygon>
  <path d="M742.1,865l2.9-.4c-4.5,2.7-8.2,8.4-13.9,7.4-.5-3.6,1.3-.8,3-1.4,2.5-.9,6.4-4.8,6.9-7.5l1,1.9Z"></path>
  <path d="M662.6,892.9l-3-.5,5.9-14.4c2.4,5.5-3.2,10-3,14.9Z"></path>
  <path d="M827.4,775.8c-4,4.9-3.1,12.8-7.9,16.9,1.5-4.3,2.9-10.5,4.9-14.5s.9-2.8,3-2.4Z"></path>
  <path d="M574.3,748.9l9.9-4.5,1-2.4,2,1.5c.5,2.3-10.5,6.3-12.9,5.4Z"></path>
  <path d="M195.1,224.8l4.9,9.4c6.7,7.3,16.5.6,22.4-4.5,6.7-5.9,10.8-14,16.4-20.8-5,16.5-36.9,48.8-43.7,15.9Z"></path>
</svg>